<svg xmlns="http://www.w3.org/2000/svg" xmlns:xlink="http://www.w3.org/1999/xlink" width="2000" zoomAndPan="magnify" viewBox="0 0 1500 1499.999933" height="2000" preserveAspectRatio="xMidYMid meet" version="1.0"><defs><g/><clipPath id="6e8ec495f3"><path d="M 0.460938 0 L 1500 0 L 1500 1499.996094 L 0.460938 1499.996094 Z M 0.460938 0 " clip-rule="nonzero"/></clipPath><clipPath id="e304502a90"><path d="M 0.460938 43 L 1500 43 L 1500 46 L 0.460938 46 Z M 0.460938 43 " clip-rule="nonzero"/></clipPath><clipPath id="e232ef67ee"><path d="M 0.460938 120 L 1500 120 L 1500 123 L 0.460938 123 Z M 0.460938 120 " clip-rule="nonzero"/></clipPath><clipPath id="5211b733e9"><path d="M 0.460938 196 L 1500 196 L 1500 199 L 0.460938 199 Z M 0.460938 196 " clip-rule="nonzero"/></clipPath><clipPath id="21c2a2e798"><path d="M 0.460938 273 L 1500 273 L 1500 276 L 0.460938 276 Z M 0.460938 273 " clip-rule="nonzero"/></clipPath><clipPath id="18245c1d12"><path d="M 0.460938 350 L 1500 350 L 1500 352 L 0.460938 352 Z M 0.460938 350 " clip-rule="nonzero"/></clipPath><clipPath id="bea5721a59"><path d="M 0.460938 426 L 1500 426 L 1500 429 L 0.460938 429 Z M 0.460938 426 " clip-rule="nonzero"/></clipPath><clipPath id="c58a6e4111"><path d="M 0.460938 503 L 1500 503 L 1500 505 L 0.460938 505 Z M 0.460938 503 " clip-rule="nonzero"/></clipPath><clipPath id="b8a652cd4d"><path d="M 0.460938 579 L 1500 579 L 1500 582 L 0.460938 582 Z M 0.460938 579 " clip-rule="nonzero"/></clipPath><clipPath id="d9458e33b7"><path d="M 0.460938 656 L 1500 656 L 1500 659 L 0.460938 659 Z M 0.460938 656 " clip-rule="nonzero"/></clipPath><clipPath id="12e710ebbe"><path d="M 0.460938 732 L 1500 732 L 1500 735 L 0.460938 735 Z M 0.460938 732 " clip-rule="nonzero"/></clipPath><clipPath id="46f4371991"><path d="M 0.460938 809 L 1500 809 L 1500 812 L 0.460938 812 Z M 0.460938 809 " clip-rule="nonzero"/></clipPath><clipPath id="c62221df73"><path d="M 0.460938 885 L 1500 885 L 1500 888 L 0.460938 888 Z M 0.460938 885 " clip-rule="nonzero"/></clipPath><clipPath id="42ae153b45"><path d="M 0.460938 962 L 1500 962 L 1500 965 L 0.460938 965 Z M 0.460938 962 " clip-rule="nonzero"/></clipPath><clipPath id="abcc5d9b03"><path d="M 0.460938 1039 L 1500 1039 L 1500 1041 L 0.460938 1041 Z M 0.460938 1039 " clip-rule="nonzero"/></clipPath><clipPath id="99f79d203d"><path d="M 0.460938 1115 L 1500 1115 L 1500 1118 L 0.460938 1118 Z M 0.460938 1115 " clip-rule="nonzero"/></clipPath><clipPath id="c73d33e9fb"><path d="M 0.460938 1192 L 1500 1192 L 1500 1195 L 0.460938 1195 Z M 0.460938 1192 " clip-rule="nonzero"/></clipPath><clipPath id="b53246221f"><path d="M 0.460938 1268 L 1500 1268 L 1500 1271 L 0.460938 1271 Z M 0.460938 1268 " clip-rule="nonzero"/></clipPath><clipPath id="d7997ba82c"><path d="M 0.460938 1345 L 1500 1345 L 1500 1348 L 0.460938 1348 Z M 0.460938 1345 " clip-rule="nonzero"/></clipPath><clipPath id="1009c0c224"><path d="M 0.460938 1421 L 1500 1421 L 1500 1424 L 0.460938 1424 Z M 0.460938 1421 " clip-rule="nonzero"/></clipPath><clipPath id="15cda0eef0"><path d="M 0.460938 1498 L 1500 1498 L 1500 1499.996094 L 0.460938 1499.996094 Z M 0.460938 1498 " clip-rule="nonzero"/></clipPath><clipPath id="8c837155eb"><path d="M 74 0 L 77 0 L 77 1499.996094 L 74 1499.996094 Z M 74 0 " clip-rule="nonzero"/></clipPath><clipPath id="e8c6ae03d0"><path d="M 150 0 L 153 0 L 153 1499.996094 L 150 1499.996094 Z M 150 0 " clip-rule="nonzero"/></clipPath><clipPath id="40ff744a19"><path d="M 227 0 L 230 0 L 230 1499.996094 L 227 1499.996094 Z M 227 0 " clip-rule="nonzero"/></clipPath><clipPath id="84a3980b39"><path d="M 303 0 L 306 0 L 306 1499.996094 L 303 1499.996094 Z M 303 0 " clip-rule="nonzero"/></clipPath><clipPath id="b63a431526"><path d="M 380 0 L 383 0 L 383 1499.996094 L 380 1499.996094 Z M 380 0 " clip-rule="nonzero"/></clipPath><clipPath id="a8d1037b48"><path d="M 457 0 L 459 0 L 459 1499.996094 L 457 1499.996094 Z M 457 0 " clip-rule="nonzero"/></clipPath><clipPath id="25b4948974"><path d="M 533 0 L 536 0 L 536 1499.996094 L 533 1499.996094 Z M 533 0 " clip-rule="nonzero"/></clipPath><clipPath id="ebc81ece92"><path d="M 610 0 L 613 0 L 613 1499.996094 L 610 1499.996094 Z M 610 0 " clip-rule="nonzero"/></clipPath><clipPath id="5f6ef8aee8"><path d="M 686 0 L 689 0 L 689 1499.996094 L 686 1499.996094 Z M 686 0 " clip-rule="nonzero"/></clipPath><clipPath id="e1bbd39a97"><path d="M 763 0 L 766 0 L 766 1499.996094 L 763 1499.996094 Z M 763 0 " clip-rule="nonzero"/></clipPath><clipPath id="03453d32bf"><path d="M 839 0 L 842 0 L 842 1499.996094 L 839 1499.996094 Z M 839 0 " clip-rule="nonzero"/></clipPath><clipPath id="3361726c67"><path d="M 916 0 L 919 0 L 919 1499.996094 L 916 1499.996094 Z M 916 0 " clip-rule="nonzero"/></clipPath><clipPath id="cf96336afd"><path d="M 993 0 L 995 0 L 995 1499.996094 L 993 1499.996094 Z M 993 0 " clip-rule="nonzero"/></clipPath><clipPath id="40710b2843"><path d="M 1069 0 L 1072 0 L 1072 1499.996094 L 1069 1499.996094 Z M 1069 0 " clip-rule="nonzero"/></clipPath><clipPath id="57a57b9dcb"><path d="M 1146 0 L 1148 0 L 1148 1499.996094 L 1146 1499.996094 Z M 1146 0 " clip-rule="nonzero"/></clipPath><clipPath id="2193dc0163"><path d="M 1222 0 L 1225 0 L 1225 1499.996094 L 1222 1499.996094 Z M 1222 0 " clip-rule="nonzero"/></clipPath><clipPath id="e3d7e26451"><path d="M 1299 0 L 1302 0 L 1302 1499.996094 L 1299 1499.996094 Z M 1299 0 " clip-rule="nonzero"/></clipPath><clipPath id="99a5ed1ffa"><path d="M 1375 0 L 1378 0 L 1378 1499.996094 L 1375 1499.996094 Z M 1375 0 " clip-rule="nonzero"/></clipPath><clipPath id="2a0aeb2df3"><path d="M 1452 0 L 1455 0 L 1455 1499.996094 L 1452 1499.996094 Z M 1452 0 " clip-rule="nonzero"/></clipPath><clipPath id="a8ac788cc7"><path d="M 589.207031 301.796875 L 793.472656 301.796875 L 793.472656 688.195312 L 589.207031 688.195312 Z M 589.207031 301.796875 " clip-rule="nonzero"/></clipPath><clipPath id="08e6ec599c"><path d="M 0.207031 0.796875 L 204.472656 0.796875 L 204.472656 387 L 0.207031 387 Z M 0.207031 0.796875 " clip-rule="nonzero"/></clipPath><clipPath id="95717b163b"><rect x="0" width="205" y="0" height="388"/></clipPath><clipPath id="abce14bc3c"><path d="M 376.117188 325.617188 L 1495.117188 325.617188 L 1495.117188 1500 L 376.117188 1500 Z M 376.117188 325.617188 " clip-rule="nonzero"/></clipPath><clipPath id="23770051ed"><rect x="0" width="641" y="0" height="618"/></clipPath><clipPath id="e80ddf2cdf"><path d="M 765.894531 734.371094 L 1500 734.371094 L 1500 1500 L 765.894531 1500 Z M 765.894531 734.371094 " clip-rule="nonzero"/></clipPath><clipPath id="d617e3e9f7"><path d="M 765.894531 734.371094 L 1500 734.371094 L 1500 735 L 765.894531 735 Z M 765.894531 734.371094 " clip-rule="nonzero"/></clipPath><clipPath id="8328d8869c"><path d="M 765.894531 777 L 1500 777 L 1500 779 L 765.894531 779 Z M 765.894531 777 " clip-rule="nonzero"/></clipPath><clipPath id="fda7b45c48"><path d="M 765.894531 822 L 1500 822 L 1500 824 L 765.894531 824 Z M 765.894531 822 " clip-rule="nonzero"/></clipPath><clipPath id="14920c37ee"><path d="M 765.894531 866 L 1500 866 L 1500 868 L 765.894531 868 Z M 765.894531 866 " clip-rule="nonzero"/></clipPath><clipPath id="afdd488468"><path d="M 765.894531 910 L 1500 910 L 1500 912 L 765.894531 912 Z M 765.894531 910 " clip-rule="nonzero"/></clipPath><clipPath id="e4a1ffb02a"><path d="M 765.894531 954 L 1500 954 L 1500 956 L 765.894531 956 Z M 765.894531 954 " clip-rule="nonzero"/></clipPath><clipPath id="c4433c0975"><path d="M 765.894531 999 L 1500 999 L 1500 1001 L 765.894531 1001 Z M 765.894531 999 " clip-rule="nonzero"/></clipPath><clipPath id="db72ec7fc6"><path d="M 765.894531 1043 L 1500 1043 L 1500 1045 L 765.894531 1045 Z M 765.894531 1043 " clip-rule="nonzero"/></clipPath><clipPath id="c4719773eb"><path d="M 765.894531 1087 L 1500 1087 L 1500 1089 L 765.894531 1089 Z M 765.894531 1087 " clip-rule="nonzero"/></clipPath><clipPath id="7a26e78bd7"><path d="M 765.894531 1132 L 1500 1132 L 1500 1134 L 765.894531 1134 Z M 765.894531 1132 " clip-rule="nonzero"/></clipPath><clipPath id="f781c22682"><path d="M 765.894531 1176 L 1500 1176 L 1500 1178 L 765.894531 1178 Z M 765.894531 1176 " clip-rule="nonzero"/></clipPath><clipPath id="3a85d782f6"><path d="M 765.894531 1220 L 1500 1220 L 1500 1222 L 765.894531 1222 Z M 765.894531 1220 " clip-rule="nonzero"/></clipPath><clipPath id="5832cb1fdc"><path d="M 765.894531 1264 L 1500 1264 L 1500 1266 L 765.894531 1266 Z M 765.894531 1264 " clip-rule="nonzero"/></clipPath><clipPath id="55b53a7a40"><path d="M 765.894531 1309 L 1500 1309 L 1500 1311 L 765.894531 1311 Z M 765.894531 1309 " clip-rule="nonzero"/></clipPath><clipPath id="ae989bde23"><path d="M 765.894531 1353 L 1500 1353 L 1500 1355 L 765.894531 1355 Z M 765.894531 1353 " clip-rule="nonzero"/></clipPath><clipPath id="8ca68ad321"><path d="M 765.894531 1397 L 1500 1397 L 1500 1399 L 765.894531 1399 Z M 765.894531 1397 " clip-rule="nonzero"/></clipPath><clipPath id="b8bac58e64"><path d="M 765.894531 1442 L 1500 1442 L 1500 1444 L 765.894531 1444 Z M 765.894531 1442 " clip-rule="nonzero"/></clipPath><clipPath id="c0121b1e52"><path d="M 765.894531 1486 L 1500 1486 L 1500 1488 L 765.894531 1488 Z M 765.894531 1486 " clip-rule="nonzero"/></clipPath><clipPath id="e6744e64d9"><path d="M 808 734.371094 L 810 734.371094 L 810 1500 L 808 1500 Z M 808 734.371094 " clip-rule="nonzero"/></clipPath><clipPath id="740024a3a8"><path d="M 852 734.371094 L 854 734.371094 L 854 1500 L 852 1500 Z M 852 734.371094 " clip-rule="nonzero"/></clipPath><clipPath id="3d2a9f1f35"><path d="M 897 734.371094 L 899 734.371094 L 899 1500 L 897 1500 Z M 897 734.371094 " clip-rule="nonzero"/></clipPath><clipPath id="c87f50452b"><path d="M 941 734.371094 L 943 734.371094 L 943 1500 L 941 1500 Z M 941 734.371094 " clip-rule="nonzero"/></clipPath><clipPath id="cb44607ff2"><path d="M 985 734.371094 L 987 734.371094 L 987 1500 L 985 1500 Z M 985 734.371094 " clip-rule="nonzero"/></clipPath><clipPath id="2bca3c135e"><path d="M 1030 734.371094 L 1032 734.371094 L 1032 1500 L 1030 1500 Z M 1030 734.371094 " clip-rule="nonzero"/></clipPath><clipPath id="ed4bc63dd5"><path d="M 1074 734.371094 L 1076 734.371094 L 1076 1500 L 1074 1500 Z M 1074 734.371094 " clip-rule="nonzero"/></clipPath><clipPath id="a20ff281b4"><path d="M 1118 734.371094 L 1120 734.371094 L 1120 1500 L 1118 1500 Z M 1118 734.371094 " clip-rule="nonzero"/></clipPath><clipPath id="b8653a9c16"><path d="M 1162 734.371094 L 1164 734.371094 L 1164 1500 L 1162 1500 Z M 1162 734.371094 " clip-rule="nonzero"/></clipPath><clipPath id="8a9070a706"><path d="M 1207 734.371094 L 1209 734.371094 L 1209 1500 L 1207 1500 Z M 1207 734.371094 " clip-rule="nonzero"/></clipPath><clipPath id="243a149e99"><path d="M 1251 734.371094 L 1253 734.371094 L 1253 1500 L 1251 1500 Z M 1251 734.371094 " clip-rule="nonzero"/></clipPath><clipPath id="b790b20060"><path d="M 1295 734.371094 L 1297 734.371094 L 1297 1500 L 1295 1500 Z M 1295 734.371094 " clip-rule="nonzero"/></clipPath><clipPath id="f0dfd89de4"><path d="M 1340 734.371094 L 1342 734.371094 L 1342 1500 L 1340 1500 Z M 1340 734.371094 " clip-rule="nonzero"/></clipPath><clipPath id="b286fe0ff0"><path d="M 1384 734.371094 L 1386 734.371094 L 1386 1500 L 1384 1500 Z M 1384 734.371094 " clip-rule="nonzero"/></clipPath><clipPath id="1cba764b60"><path d="M 1428 734.371094 L 1430 734.371094 L 1430 1500 L 1428 1500 Z M 1428 734.371094 " clip-rule="nonzero"/></clipPath><clipPath id="665b42d956"><path d="M 1472 734.371094 L 1474 734.371094 L 1474 1500 L 1472 1500 Z M 1472 734.371094 " clip-rule="nonzero"/></clipPath><clipPath id="ca04457b2a"><path d="M 1156.71875 325.617188 L 1500 325.617188 L 1500 737 L 1156.71875 737 Z M 1156.71875 325.617188 " clip-rule="nonzero"/></clipPath><clipPath id="5d5d4379a1"><path d="M 1156.71875 325.617188 L 1500 325.617188 L 1500 326 L 1156.71875 326 Z M 1156.71875 325.617188 " clip-rule="nonzero"/></clipPath><clipPath id="5f86aa993b"><path d="M 1156.71875 345 L 1500 345 L 1500 347 L 1156.71875 347 Z M 1156.71875 345 " clip-rule="nonzero"/></clipPath><clipPath id="a0cd0dba0c"><path d="M 1156.71875 366 L 1500 366 L 1500 367 L 1156.71875 367 Z M 1156.71875 366 " clip-rule="nonzero"/></clipPath><clipPath id="26b483e774"><path d="M 1156.71875 386 L 1500 386 L 1500 388 L 1156.71875 388 Z M 1156.71875 386 " clip-rule="nonzero"/></clipPath><clipPath id="b38c2ac0aa"><path d="M 1156.71875 407 L 1500 407 L 1500 408 L 1156.71875 408 Z M 1156.71875 407 " clip-rule="nonzero"/></clipPath><clipPath id="8fd6650bc2"><path d="M 1156.71875 428 L 1500 428 L 1500 429 L 1156.71875 429 Z M 1156.71875 428 " clip-rule="nonzero"/></clipPath><clipPath id="7987992a44"><path d="M 1156.71875 448 L 1500 448 L 1500 450 L 1156.71875 450 Z M 1156.71875 448 " clip-rule="nonzero"/></clipPath><clipPath id="92cfb99d14"><path d="M 1156.71875 469 L 1500 469 L 1500 470 L 1156.71875 470 Z M 1156.71875 469 " clip-rule="nonzero"/></clipPath><clipPath id="30e86d18a6"><path d="M 1156.71875 489 L 1500 489 L 1500 491 L 1156.71875 491 Z M 1156.71875 489 " clip-rule="nonzero"/></clipPath><clipPath id="f87a5bea0d"><path d="M 1156.71875 510 L 1500 510 L 1500 511 L 1156.71875 511 Z M 1156.71875 510 " clip-rule="nonzero"/></clipPath><clipPath id="f1b7d9c382"><path d="M 1156.71875 530 L 1500 530 L 1500 532 L 1156.71875 532 Z M 1156.71875 530 " clip-rule="nonzero"/></clipPath><clipPath id="4dcb09cf66"><path d="M 1156.71875 551 L 1500 551 L 1500 553 L 1156.71875 553 Z M 1156.71875 551 " clip-rule="nonzero"/></clipPath><clipPath id="66e65d2212"><path d="M 1156.71875 572 L 1500 572 L 1500 573 L 1156.71875 573 Z M 1156.71875 572 " clip-rule="nonzero"/></clipPath><clipPath id="d55c0f8cde"><path d="M 1156.71875 592 L 1500 592 L 1500 594 L 1156.71875 594 Z M 1156.71875 592 " clip-rule="nonzero"/></clipPath><clipPath id="793c99408c"><path d="M 1156.71875 613 L 1500 613 L 1500 614 L 1156.71875 614 Z M 1156.71875 613 " clip-rule="nonzero"/></clipPath><clipPath id="5e99cb6d07"><path d="M 1156.71875 633 L 1500 633 L 1500 635 L 1156.71875 635 Z M 1156.71875 633 " clip-rule="nonzero"/></clipPath><clipPath id="92706506de"><path d="M 1156.71875 654 L 1500 654 L 1500 655 L 1156.71875 655 Z M 1156.71875 654 " clip-rule="nonzero"/></clipPath><clipPath id="3d9dcd94d9"><path d="M 1156.71875 674 L 1500 674 L 1500 676 L 1156.71875 676 Z M 1156.71875 674 " clip-rule="nonzero"/></clipPath><clipPath id="6996b366da"><path d="M 1156.71875 695 L 1500 695 L 1500 697 L 1156.71875 697 Z M 1156.71875 695 " clip-rule="nonzero"/></clipPath><clipPath id="6455226492"><path d="M 1156.71875 716 L 1500 716 L 1500 717 L 1156.71875 717 Z M 1156.71875 716 " clip-rule="nonzero"/></clipPath><clipPath id="5b36f75597"><path d="M 1156.71875 736 L 1500 736 L 1500 737.132812 L 1156.71875 737.132812 Z M 1156.71875 736 " clip-rule="nonzero"/></clipPath><clipPath id="95666a816a"><path d="M 1156.71875 325.617188 L 1157 325.617188 L 1157 737 L 1156.71875 737 Z M 1156.71875 325.617188 " clip-rule="nonzero"/></clipPath><clipPath id="160cd09829"><path d="M 1176 325.617188 L 1178 325.617188 L 1178 737 L 1176 737 Z M 1176 325.617188 " clip-rule="nonzero"/></clipPath><clipPath id="846bffa616"><path d="M 1197 325.617188 L 1198 325.617188 L 1198 737 L 1197 737 Z M 1197 325.617188 " clip-rule="nonzero"/></clipPath><clipPath id="be8fcecc78"><path d="M 1217 325.617188 L 1219 325.617188 L 1219 737 L 1217 737 Z M 1217 325.617188 " clip-rule="nonzero"/></clipPath><clipPath id="5988665671"><path d="M 1238 325.617188 L 1239 325.617188 L 1239 737 L 1238 737 Z M 1238 325.617188 " clip-rule="nonzero"/></clipPath><clipPath id="c72746a32e"><path d="M 1258 325.617188 L 1260 325.617188 L 1260 737 L 1258 737 Z M 1258 325.617188 " clip-rule="nonzero"/></clipPath><clipPath id="7e06a44fd5"><path d="M 1279 325.617188 L 1280 325.617188 L 1280 737 L 1279 737 Z M 1279 325.617188 " clip-rule="nonzero"/></clipPath><clipPath id="387d5866c1"><path d="M 1300 325.617188 L 1301 325.617188 L 1301 737 L 1300 737 Z M 1300 325.617188 " clip-rule="nonzero"/></clipPath><clipPath id="67b6179f74"><path d="M 1320 325.617188 L 1322 325.617188 L 1322 737 L 1320 737 Z M 1320 325.617188 " clip-rule="nonzero"/></clipPath><clipPath id="542ee4c8b7"><path d="M 1341 325.617188 L 1342 325.617188 L 1342 737 L 1341 737 Z M 1341 325.617188 " clip-rule="nonzero"/></clipPath><clipPath id="35ab39afd0"><path d="M 1361 325.617188 L 1363 325.617188 L 1363 737 L 1361 737 Z M 1361 325.617188 " clip-rule="nonzero"/></clipPath><clipPath id="afe9b9f7aa"><path d="M 1382 325.617188 L 1383 325.617188 L 1383 737 L 1382 737 Z M 1382 325.617188 " clip-rule="nonzero"/></clipPath><clipPath id="958341a470"><path d="M 1402 325.617188 L 1404 325.617188 L 1404 737 L 1402 737 Z M 1402 325.617188 " clip-rule="nonzero"/></clipPath><clipPath id="5800ac5e67"><path d="M 1423 325.617188 L 1424 325.617188 L 1424 737 L 1423 737 Z M 1423 325.617188 " clip-rule="nonzero"/></clipPath><clipPath id="aa9f2cae25"><path d="M 1444 325.617188 L 1445 325.617188 L 1445 737 L 1444 737 Z M 1444 325.617188 " clip-rule="nonzero"/></clipPath><clipPath id="e7239a6d6e"><path d="M 1464 325.617188 L 1466 325.617188 L 1466 737 L 1464 737 Z M 1464 325.617188 " clip-rule="nonzero"/></clipPath><clipPath id="332e4bba1f"><path d="M 1485 325.617188 L 1486 325.617188 L 1486 737 L 1485 737 Z M 1485 325.617188 " clip-rule="nonzero"/></clipPath><clipPath id="5719f84312"><path d="M 376.234375 1127.984375 L 765.367188 1127.984375 L 765.367188 1500 L 376.234375 1500 Z M 376.234375 1127.984375 " clip-rule="nonzero"/></clipPath><clipPath id="f4c923ec67"><path d="M 376.234375 1139 L 765.367188 1139 L 765.367188 1140 L 376.234375 1140 Z M 376.234375 1139 " clip-rule="nonzero"/></clipPath><clipPath id="935a7baaff"><path d="M 376.234375 1158 L 765.367188 1158 L 765.367188 1160 L 376.234375 1160 Z M 376.234375 1158 " clip-rule="nonzero"/></clipPath><clipPath id="c83fb14b0d"><path d="M 376.234375 1178 L 765.367188 1178 L 765.367188 1179 L 376.234375 1179 Z M 376.234375 1178 " clip-rule="nonzero"/></clipPath><clipPath id="6eb604b87a"><path d="M 376.234375 1197 L 765.367188 1197 L 765.367188 1199 L 376.234375 1199 Z M 376.234375 1197 " clip-rule="nonzero"/></clipPath><clipPath id="5fc0c8f87a"><path d="M 376.234375 1217 L 765.367188 1217 L 765.367188 1218 L 376.234375 1218 Z M 376.234375 1217 " clip-rule="nonzero"/></clipPath><clipPath id="96b19a1cc4"><path d="M 376.234375 1236 L 765.367188 1236 L 765.367188 1238 L 376.234375 1238 Z M 376.234375 1236 " clip-rule="nonzero"/></clipPath><clipPath id="79ed04ad0e"><path d="M 376.234375 1256 L 765.367188 1256 L 765.367188 1257 L 376.234375 1257 Z M 376.234375 1256 " clip-rule="nonzero"/></clipPath><clipPath id="8dfd50c20c"><path d="M 376.234375 1275 L 765.367188 1275 L 765.367188 1277 L 376.234375 1277 Z M 376.234375 1275 " clip-rule="nonzero"/></clipPath><clipPath id="38ec0caf7b"><path d="M 376.234375 1295 L 765.367188 1295 L 765.367188 1296 L 376.234375 1296 Z M 376.234375 1295 " clip-rule="nonzero"/></clipPath><clipPath id="0e24f3586e"><path d="M 376.234375 1314 L 765.367188 1314 L 765.367188 1316 L 376.234375 1316 Z M 376.234375 1314 " clip-rule="nonzero"/></clipPath><clipPath id="5b33a210dc"><path d="M 376.234375 1334 L 765.367188 1334 L 765.367188 1335 L 376.234375 1335 Z M 376.234375 1334 " clip-rule="nonzero"/></clipPath><clipPath id="c19608c6b9"><path d="M 376.234375 1353 L 765.367188 1353 L 765.367188 1354 L 376.234375 1354 Z M 376.234375 1353 " clip-rule="nonzero"/></clipPath><clipPath id="73b62314e0"><path d="M 376.234375 1372 L 765.367188 1372 L 765.367188 1374 L 376.234375 1374 Z M 376.234375 1372 " clip-rule="nonzero"/></clipPath><clipPath id="f55a0a6d61"><path d="M 376.234375 1392 L 765.367188 1392 L 765.367188 1393 L 376.234375 1393 Z M 376.234375 1392 " clip-rule="nonzero"/></clipPath><clipPath id="8a2324a5ac"><path d="M 376.234375 1411 L 765.367188 1411 L 765.367188 1413 L 376.234375 1413 Z M 376.234375 1411 " clip-rule="nonzero"/></clipPath><clipPath id="d2aee9b036"><path d="M 376.234375 1431 L 765.367188 1431 L 765.367188 1432 L 376.234375 1432 Z M 376.234375 1431 " clip-rule="nonzero"/></clipPath><clipPath id="83f8821eff"><path d="M 376.234375 1450 L 765.367188 1450 L 765.367188 1452 L 376.234375 1452 Z M 376.234375 1450 " clip-rule="nonzero"/></clipPath><clipPath id="71afcd2c58"><path d="M 376.234375 1470 L 765.367188 1470 L 765.367188 1471 L 376.234375 1471 Z M 376.234375 1470 " clip-rule="nonzero"/></clipPath><clipPath id="377e08be56"><path d="M 376.234375 1489 L 765.367188 1489 L 765.367188 1491 L 376.234375 1491 Z M 376.234375 1489 " clip-rule="nonzero"/></clipPath><clipPath id="494c160689"><path d="M 395 1127.984375 L 396 1127.984375 L 396 1500 L 395 1500 Z M 395 1127.984375 " clip-rule="nonzero"/></clipPath><clipPath id="936b93bde8"><path d="M 414 1127.984375 L 415 1127.984375 L 415 1500 L 414 1500 Z M 414 1127.984375 " clip-rule="nonzero"/></clipPath><clipPath id="f4d5a29127"><path d="M 433 1127.984375 L 435 1127.984375 L 435 1500 L 433 1500 Z M 433 1127.984375 " clip-rule="nonzero"/></clipPath><clipPath id="4d8b431783"><path d="M 453 1127.984375 L 454 1127.984375 L 454 1500 L 453 1500 Z M 453 1127.984375 " clip-rule="nonzero"/></clipPath><clipPath id="648b56df92"><path d="M 472 1127.984375 L 474 1127.984375 L 474 1500 L 472 1500 Z M 472 1127.984375 " clip-rule="nonzero"/></clipPath><clipPath id="5f6115a617"><path d="M 492 1127.984375 L 493 1127.984375 L 493 1500 L 492 1500 Z M 492 1127.984375 " clip-rule="nonzero"/></clipPath><clipPath id="ca60d1299c"><path d="M 511 1127.984375 L 513 1127.984375 L 513 1500 L 511 1500 Z M 511 1127.984375 " clip-rule="nonzero"/></clipPath><clipPath id="e1bc2fe8b6"><path d="M 531 1127.984375 L 532 1127.984375 L 532 1500 L 531 1500 Z M 531 1127.984375 " clip-rule="nonzero"/></clipPath><clipPath id="49060875be"><path d="M 550 1127.984375 L 552 1127.984375 L 552 1500 L 550 1500 Z M 550 1127.984375 " clip-rule="nonzero"/></clipPath><clipPath id="227606a471"><path d="M 570 1127.984375 L 571 1127.984375 L 571 1500 L 570 1500 Z M 570 1127.984375 " clip-rule="nonzero"/></clipPath><clipPath id="62891bda21"><path d="M 589 1127.984375 L 591 1127.984375 L 591 1500 L 589 1500 Z M 589 1127.984375 " clip-rule="nonzero"/></clipPath><clipPath id="72368fea34"><path d="M 609 1127.984375 L 610 1127.984375 L 610 1500 L 609 1500 Z M 609 1127.984375 " clip-rule="nonzero"/></clipPath><clipPath id="1e1da4635c"><path d="M 628 1127.984375 L 630 1127.984375 L 630 1500 L 628 1500 Z M 628 1127.984375 " clip-rule="nonzero"/></clipPath><clipPath id="5d3ce99389"><path d="M 648 1127.984375 L 649 1127.984375 L 649 1500 L 648 1500 Z M 648 1127.984375 " clip-rule="nonzero"/></clipPath><clipPath id="c8fa27c069"><path d="M 667 1127.984375 L 669 1127.984375 L 669 1500 L 667 1500 Z M 667 1127.984375 " clip-rule="nonzero"/></clipPath><clipPath id="d0f1a2ceda"><path d="M 687 1127.984375 L 688 1127.984375 L 688 1500 L 687 1500 Z M 687 1127.984375 " clip-rule="nonzero"/></clipPath><clipPath id="ad32c6264b"><path d="M 706 1127.984375 L 708 1127.984375 L 708 1500 L 706 1500 Z M 706 1127.984375 " clip-rule="nonzero"/></clipPath><clipPath id="a03cd8b7b4"><path d="M 726 1127.984375 L 727 1127.984375 L 727 1500 L 726 1500 Z M 726 1127.984375 " clip-rule="nonzero"/></clipPath><clipPath id="5797fdd7db"><path d="M 745 1127.984375 L 747 1127.984375 L 747 1500 L 745 1500 Z M 745 1127.984375 " clip-rule="nonzero"/></clipPath><clipPath id="b36daeaae2"><path d="M 765 1127.984375 L 765.367188 1127.984375 L 765.367188 1500 L 765 1500 Z M 765 1127.984375 " clip-rule="nonzero"/></clipPath><clipPath id="0c7633f912"><path d="M 373 408.746094 L 1484 408.746094 L 1484 1496 L 373 1496 Z M 373 408.746094 " clip-rule="nonzero"/></clipPath><clipPath id="44b1732ceb"><path d="M 514 1462 L 528 1462 L 528 1499.996094 L 514 1499.996094 Z M 514 1462 " clip-rule="nonzero"/></clipPath><clipPath id="31c8853e21"><path d="M 629 1462 L 643 1462 L 643 1499.996094 L 629 1499.996094 Z M 629 1462 " clip-rule="nonzero"/></clipPath><clipPath id="719cf52ca4"><path d="M 745 1462 L 759 1462 L 759 1499.996094 L 745 1499.996094 Z M 745 1462 " clip-rule="nonzero"/></clipPath><clipPath id="4575a0e235"><path d="M 863 1462 L 876 1462 L 876 1499.996094 L 863 1499.996094 Z M 863 1462 " clip-rule="nonzero"/></clipPath><clipPath id="4026cfd3ed"><path d="M 982 1462 L 996 1462 L 996 1499.996094 L 982 1499.996094 Z M 982 1462 " clip-rule="nonzero"/></clipPath><clipPath id="b39b8ad76b"><path d="M 1100 1462 L 1114 1462 L 1114 1499.996094 L 1100 1499.996094 Z M 1100 1462 " clip-rule="nonzero"/></clipPath><clipPath id="a4e944cc47"><path d="M 1215 1462 L 1229 1462 L 1229 1499.996094 L 1215 1499.996094 Z M 1215 1462 " clip-rule="nonzero"/></clipPath><clipPath id="7813387e11"><path d="M 1333 1462 L 1347 1462 L 1347 1499.996094 L 1333 1499.996094 Z M 1333 1462 " clip-rule="nonzero"/></clipPath><clipPath id="7475a85244"><path d="M 1449 1346 L 1499.960938 1346 L 1499.960938 1360 L 1449 1360 Z M 1449 1346 " clip-rule="nonzero"/></clipPath><clipPath id="a08d123397"><path d="M 1449 1228 L 1499.960938 1228 L 1499.960938 1242 L 1449 1242 Z M 1449 1228 " clip-rule="nonzero"/></clipPath><clipPath id="a46288d2a9"><path d="M 1449 1113 L 1499.960938 1113 L 1499.960938 1127 L 1449 1127 Z M 1449 1113 " clip-rule="nonzero"/></clipPath><clipPath id="54680c09d8"><path d="M 1449 996 L 1499.960938 996 L 1499.960938 1009 L 1449 1009 Z M 1449 996 " clip-rule="nonzero"/></clipPath><clipPath id="31692dfe1d"><path d="M 1449 875 L 1499.960938 875 L 1499.960938 888 L 1449 888 Z M 1449 875 " clip-rule="nonzero"/></clipPath><clipPath id="3411afc67d"><path d="M 1449 757 L 1499.960938 757 L 1499.960938 771 L 1449 771 Z M 1449 757 " clip-rule="nonzero"/></clipPath><clipPath id="fe2dbf329a"><path d="M 1449 642 L 1499.960938 642 L 1499.960938 656 L 1449 656 Z M 1449 642 " clip-rule="nonzero"/></clipPath><clipPath id="dde4a9a409"><path d="M 1449 524 L 1499.960938 524 L 1499.960938 538 L 1449 538 Z M 1449 524 " clip-rule="nonzero"/></clipPath><clipPath id="1570abea09"><path d="M 369 1465 L 397 1465 L 397 1499.996094 L 369 1499.996094 Z M 369 1465 " clip-rule="nonzero"/></clipPath><clipPath id="f6693f6ff8"><path d="M 1452 408.746094 L 1499.960938 408.746094 L 1499.960938 426 L 1452 426 Z M 1452 408.746094 " clip-rule="nonzero"/></clipPath><clipPath id="0c9e448d5f"><rect x="0" width="590" y="0" height="410"/></clipPath></defs><g clip-path="url(#6e8ec495f3)"><path fill="#ffffff" d="M -1.070312 -31.871094 L 1530.183594 -31.871094 L 1530.183594 1499.382812 L -1.070312 1499.382812 Z M -1.070312 -31.871094 " fill-opacity="1" fill-rule="nonzero"/></g><g clip-path="url(#e304502a90)"><path fill="#f14c2f" d="M -1.070312 43.773438 L 1530.183594 43.773438 L 1530.183594 45.609375 L -1.070312 45.609375 Z M -1.070312 43.773438 " fill-opacity="1" fill-rule="nonzero"/></g><g clip-path="url(#e232ef67ee)"><path fill="#f14c2f" d="M -1.070312 120.335938 L 1530.183594 120.335938 L 1530.183594 122.175781 L -1.070312 122.175781 Z M -1.070312 120.335938 " fill-opacity="1" fill-rule="nonzero"/></g><g clip-path="url(#5211b733e9)"><path fill="#f14c2f" d="M -1.070312 196.898438 L 1530.183594 196.898438 L 1530.183594 198.738281 L -1.070312 198.738281 Z M -1.070312 196.898438 " fill-opacity="1" fill-rule="nonzero"/></g><g clip-path="url(#21c2a2e798)"><path fill="#f14c2f" d="M -1.070312 273.460938 L 1530.183594 273.460938 L 1530.183594 275.300781 L -1.070312 275.300781 Z M -1.070312 273.460938 " fill-opacity="1" fill-rule="nonzero"/></g><g clip-path="url(#18245c1d12)"><path fill="#f14c2f" d="M -1.070312 350.023438 L 1530.183594 350.023438 L 1530.183594 351.863281 L -1.070312 351.863281 Z M -1.070312 350.023438 " fill-opacity="1" fill-rule="nonzero"/></g><g clip-path="url(#bea5721a59)"><path fill="#f14c2f" d="M -1.070312 426.585938 L 1530.183594 426.585938 L 1530.183594 428.425781 L -1.070312 428.425781 Z M -1.070312 426.585938 " fill-opacity="1" fill-rule="nonzero"/></g><g clip-path="url(#c58a6e4111)"><path fill="#f14c2f" d="M -1.070312 503.148438 L 1530.183594 503.148438 L 1530.183594 504.988281 L -1.070312 504.988281 Z M -1.070312 503.148438 " fill-opacity="1" fill-rule="nonzero"/></g><g clip-path="url(#b8a652cd4d)"><path fill="#f14c2f" d="M -1.070312 579.710938 L 1530.183594 579.710938 L 1530.183594 581.550781 L -1.070312 581.550781 Z M -1.070312 579.710938 " fill-opacity="1" fill-rule="nonzero"/></g><g clip-path="url(#d9458e33b7)"><path fill="#f14c2f" d="M -1.070312 656.273438 L 1530.183594 656.273438 L 1530.183594 658.113281 L -1.070312 658.113281 Z M -1.070312 656.273438 " fill-opacity="1" fill-rule="nonzero"/></g><g clip-path="url(#12e710ebbe)"><path fill="#f14c2f" d="M -1.070312 732.839844 L 1530.183594 732.839844 L 1530.183594 734.675781 L -1.070312 734.675781 Z M -1.070312 732.839844 " fill-opacity="1" fill-rule="nonzero"/></g><g clip-path="url(#46f4371991)"><path fill="#f14c2f" d="M -1.070312 809.402344 L 1530.183594 809.402344 L 1530.183594 811.238281 L -1.070312 811.238281 Z M -1.070312 809.402344 " fill-opacity="1" fill-rule="nonzero"/></g><g clip-path="url(#c62221df73)"><path fill="#f14c2f" d="M -1.070312 885.964844 L 1530.183594 885.964844 L 1530.183594 887.800781 L -1.070312 887.800781 Z M -1.070312 885.964844 " fill-opacity="1" fill-rule="nonzero"/></g><g clip-path="url(#42ae153b45)"><path fill="#f14c2f" d="M -1.070312 962.527344 L 1530.183594 962.527344 L 1530.183594 964.363281 L -1.070312 964.363281 Z M -1.070312 962.527344 " fill-opacity="1" fill-rule="nonzero"/></g><g clip-path="url(#abcc5d9b03)"><path fill="#f14c2f" d="M -1.070312 1039.089844 L 1530.183594 1039.089844 L 1530.183594 1040.925781 L -1.070312 1040.925781 Z M -1.070312 1039.089844 " fill-opacity="1" fill-rule="nonzero"/></g><g clip-path="url(#99f79d203d)"><path fill="#f14c2f" d="M -1.070312 1115.652344 L 1530.183594 1115.652344 L 1530.183594 1117.488281 L -1.070312 1117.488281 Z M -1.070312 1115.652344 " fill-opacity="1" fill-rule="nonzero"/></g><g clip-path="url(#c73d33e9fb)"><path fill="#f14c2f" d="M -1.070312 1192.214844 L 1530.183594 1192.214844 L 1530.183594 1194.050781 L -1.070312 1194.050781 Z M -1.070312 1192.214844 " fill-opacity="1" fill-rule="nonzero"/></g><g clip-path="url(#b53246221f)"><path fill="#f14c2f" d="M -1.070312 1268.777344 L 1530.183594 1268.777344 L 1530.183594 1270.613281 L -1.070312 1270.613281 Z M -1.070312 1268.777344 " fill-opacity="1" fill-rule="nonzero"/></g><g clip-path="url(#d7997ba82c)"><path fill="#f14c2f" d="M -1.070312 1345.339844 L 1530.183594 1345.339844 L 1530.183594 1347.175781 L -1.070312 1347.175781 Z M -1.070312 1345.339844 " fill-opacity="1" fill-rule="nonzero"/></g><g clip-path="url(#1009c0c224)"><path fill="#f14c2f" d="M -1.070312 1421.902344 L 1530.183594 1421.902344 L 1530.183594 1423.738281 L -1.070312 1423.738281 Z M -1.070312 1421.902344 " fill-opacity="1" fill-rule="nonzero"/></g><g clip-path="url(#15cda0eef0)"><path fill="#f14c2f" d="M -1.070312 1498.464844 L 1530.183594 1498.464844 L 1530.183594 1500.300781 L -1.070312 1500.300781 Z M -1.070312 1498.464844 " fill-opacity="1" fill-rule="nonzero"/></g><g clip-path="url(#8c837155eb)"><path fill="#f14c2f" d="M 74.265625 -31.871094 L 76.101562 -31.871094 L 76.101562 1499.382812 L 74.265625 1499.382812 Z M 74.265625 -31.871094 " fill-opacity="1" fill-rule="nonzero"/></g><g clip-path="url(#e8c6ae03d0)"><path fill="#f14c2f" d="M 150.828125 -31.871094 L 152.667969 -31.871094 L 152.667969 1499.382812 L 150.828125 1499.382812 Z M 150.828125 -31.871094 " fill-opacity="1" fill-rule="nonzero"/></g><g clip-path="url(#40ff744a19)"><path fill="#f14c2f" d="M 227.390625 -31.871094 L 229.230469 -31.871094 L 229.230469 1499.382812 L 227.390625 1499.382812 Z M 227.390625 -31.871094 " fill-opacity="1" fill-rule="nonzero"/></g><g clip-path="url(#84a3980b39)"><path fill="#f14c2f" d="M 303.953125 -31.871094 L 305.792969 -31.871094 L 305.792969 1499.382812 L 303.953125 1499.382812 Z M 303.953125 -31.871094 " fill-opacity="1" fill-rule="nonzero"/></g><g clip-path="url(#b63a431526)"><path fill="#f14c2f" d="M 380.515625 -31.871094 L 382.355469 -31.871094 L 382.355469 1499.382812 L 380.515625 1499.382812 Z M 380.515625 -31.871094 " fill-opacity="1" fill-rule="nonzero"/></g><g clip-path="url(#a8d1037b48)"><path fill="#f14c2f" d="M 457.078125 -31.871094 L 458.917969 -31.871094 L 458.917969 1499.382812 L 457.078125 1499.382812 Z M 457.078125 -31.871094 " fill-opacity="1" fill-rule="nonzero"/></g><g clip-path="url(#25b4948974)"><path fill="#f14c2f" d="M 533.640625 -31.871094 L 535.480469 -31.871094 L 535.480469 1499.382812 L 533.640625 1499.382812 Z M 533.640625 -31.871094 " fill-opacity="1" fill-rule="nonzero"/></g><g clip-path="url(#ebc81ece92)"><path fill="#f14c2f" d="M 610.203125 -31.871094 L 612.042969 -31.871094 L 612.042969 1499.382812 L 610.203125 1499.382812 Z M 610.203125 -31.871094 " fill-opacity="1" fill-rule="nonzero"/></g><g clip-path="url(#5f6ef8aee8)"><path fill="#f14c2f" d="M 686.765625 -31.871094 L 688.605469 -31.871094 L 688.605469 1499.382812 L 686.765625 1499.382812 Z M 686.765625 -31.871094 " fill-opacity="1" fill-rule="nonzero"/></g><g clip-path="url(#e1bbd39a97)"><path fill="#f14c2f" d="M 763.332031 -31.871094 L 765.167969 -31.871094 L 765.167969 1499.382812 L 763.332031 1499.382812 Z M 763.332031 -31.871094 " fill-opacity="1" fill-rule="nonzero"/></g><g clip-path="url(#03453d32bf)"><path fill="#f14c2f" d="M 839.894531 -31.871094 L 841.730469 -31.871094 L 841.730469 1499.382812 L 839.894531 1499.382812 Z M 839.894531 -31.871094 " fill-opacity="1" fill-rule="nonzero"/></g><g clip-path="url(#3361726c67)"><path fill="#f14c2f" d="M 916.457031 -31.871094 L 918.292969 -31.871094 L 918.292969 1499.382812 L 916.457031 1499.382812 Z M 916.457031 -31.871094 " fill-opacity="1" fill-rule="nonzero"/></g><g clip-path="url(#cf96336afd)"><path fill="#f14c2f" d="M 993.019531 -31.871094 L 994.855469 -31.871094 L 994.855469 1499.382812 L 993.019531 1499.382812 Z M 993.019531 -31.871094 " fill-opacity="1" fill-rule="nonzero"/></g><g clip-path="url(#40710b2843)"><path fill="#f14c2f" d="M 1069.582031 -31.871094 L 1071.417969 -31.871094 L 1071.417969 1499.382812 L 1069.582031 1499.382812 Z M 1069.582031 -31.871094 " fill-opacity="1" fill-rule="nonzero"/></g><g clip-path="url(#57a57b9dcb)"><path fill="#f14c2f" d="M 1146.144531 -31.871094 L 1147.980469 -31.871094 L 1147.980469 1499.382812 L 1146.144531 1499.382812 Z M 1146.144531 -31.871094 " fill-opacity="1" fill-rule="nonzero"/></g><g clip-path="url(#2193dc0163)"><path fill="#f14c2f" d="M 1222.707031 -31.871094 L 1224.542969 -31.871094 L 1224.542969 1499.382812 L 1222.707031 1499.382812 Z M 1222.707031 -31.871094 " fill-opacity="1" fill-rule="nonzero"/></g><g clip-path="url(#e3d7e26451)"><path fill="#f14c2f" d="M 1299.269531 -31.871094 L 1301.105469 -31.871094 L 1301.105469 1499.382812 L 1299.269531 1499.382812 Z M 1299.269531 -31.871094 " fill-opacity="1" fill-rule="nonzero"/></g><g clip-path="url(#99a5ed1ffa)"><path fill="#f14c2f" d="M 1375.832031 -31.871094 L 1377.667969 -31.871094 L 1377.667969 1499.382812 L 1375.832031 1499.382812 Z M 1375.832031 -31.871094 " fill-opacity="1" fill-rule="nonzero"/></g><g clip-path="url(#2a0aeb2df3)"><path fill="#f14c2f" d="M 1452.394531 -31.871094 L 1454.230469 -31.871094 L 1454.230469 1499.382812 L 1452.394531 1499.382812 Z M 1452.394531 -31.871094 " fill-opacity="1" fill-rule="nonzero"/></g><g clip-path="url(#a8ac788cc7)"><g transform="matrix(1, 0, 0, 1, 589, 301)"><g clip-path="url(#95717b163b)"><g clip-path="url(#08e6ec599c)"><path fill="#d3ff5c" d="M 0.207031 0.796875 L 204.472656 0.796875 L 204.472656 386.984375 L 0.207031 386.984375 Z M 0.207031 0.796875 " fill-opacity="1" fill-rule="nonzero"/></g></g></g></g><g clip-path="url(#abce14bc3c)"><path fill="#d3ff5c" d="M 1161.699219 325.617188 L 1161.699219 728.746094 L 758.546875 728.746094 L 758.546875 1131.894531 L 376.417969 1131.894531 L 376.417969 1535.023438 L 1564.828125 1535.023438 L 1564.828125 325.617188 Z M 1161.699219 325.617188 " fill-opacity="1" fill-rule="nonzero"/></g><g transform="matrix(1, 0, 0, 1, 590, 190)"><g clip-path="url(#23770051ed)"><g fill="#393636" fill-opacity="1"><g transform="translate(2.124539, 476.70155)"><g><path d="M 101.203125 3.328125 C 72.328125 3.328125 50.390625 -5.484375 35.390625 -23.109375 C 20.398438 -40.742188 12.90625 -65.523438 12.90625 -97.453125 L 12.90625 -267.796875 C 12.90625 -298.609375 20.398438 -321.859375 35.390625 -337.546875 C 50.390625 -353.234375 72.328125 -361.078125 101.203125 -361.078125 C 130.078125 -361.078125 152.007812 -353.234375 167 -337.546875 C 182 -321.859375 189.5 -298.609375 189.5 -267.796875 L 189.5 -97.453125 C 189.5 -65.242188 182 -40.394531 167 -22.90625 C 152.007812 -5.414062 130.078125 3.328125 101.203125 3.328125 Z M 101.203125 -62.46875 C 107.585938 -62.46875 111.890625 -65.242188 114.109375 -70.796875 C 116.328125 -76.347656 117.4375 -84.125 117.4375 -94.125 L 117.4375 -269.03125 C 117.4375 -276.8125 116.394531 -283.128906 114.3125 -287.984375 C 112.238281 -292.847656 108.007812 -295.28125 101.625 -295.28125 C 89.675781 -295.28125 83.703125 -286.253906 83.703125 -268.203125 L 83.703125 -93.703125 C 83.703125 -83.429688 84.953125 -75.65625 87.453125 -70.375 C 89.953125 -65.101562 94.535156 -62.46875 101.203125 -62.46875 Z M 101.203125 -62.46875 "/></g></g></g><g fill="#393636" fill-opacity="1"><g transform="translate(204.519331, 476.70155)"><g><path d="M 15.828125 0 L 15.828125 -357.75 L 159.09375 -357.75 L 159.09375 -288.203125 L 87.875 -288.203125 L 87.875 -231.140625 L 155.34375 -231.140625 L 155.34375 -162.421875 L 87.875 -162.421875 L 87.875 0 Z M 15.828125 0 "/></g></g></g><g fill="#393636" fill-opacity="1"><g transform="translate(370.683051, 476.70155)"><g><path d="M 15.828125 0 L 15.828125 -357.75 L 159.09375 -357.75 L 159.09375 -288.203125 L 87.875 -288.203125 L 87.875 -231.140625 L 155.34375 -231.140625 L 155.34375 -162.421875 L 87.875 -162.421875 L 87.875 0 Z M 15.828125 0 "/></g></g></g><g fill="#393636" fill-opacity="1"><g transform="translate(536.934, 476.70155)"><g/></g></g></g></g><g clip-path="url(#e80ddf2cdf)"><path fill="#d3ff5c" d="M 765.007812 734.015625 L 1650.710938 734.015625 L 1650.710938 1619.71875 L 765.007812 1619.71875 Z M 765.007812 734.015625 " fill-opacity="1" fill-rule="nonzero"/></g><g clip-path="url(#d617e3e9f7)"><path fill="#333333" d="M 765.007812 733.484375 L 1650.710938 733.484375 L 1650.710938 734.546875 L 765.007812 734.546875 Z M 765.007812 733.484375 " fill-opacity="1" fill-rule="nonzero"/></g><g clip-path="url(#8328d8869c)"><path fill="#333333" d="M 765.007812 777.769531 L 1650.710938 777.769531 L 1650.710938 778.832031 L 765.007812 778.832031 Z M 765.007812 777.769531 " fill-opacity="1" fill-rule="nonzero"/></g><g clip-path="url(#fda7b45c48)"><path fill="#333333" d="M 765.007812 822.054688 L 1650.710938 822.054688 L 1650.710938 823.117188 L 765.007812 823.117188 Z M 765.007812 822.054688 " fill-opacity="1" fill-rule="nonzero"/></g><g clip-path="url(#14920c37ee)"><path fill="#333333" d="M 765.007812 866.339844 L 1650.710938 866.339844 L 1650.710938 867.402344 L 765.007812 867.402344 Z M 765.007812 866.339844 " fill-opacity="1" fill-rule="nonzero"/></g><g clip-path="url(#afdd488468)"><path fill="#333333" d="M 765.007812 910.625 L 1650.710938 910.625 L 1650.710938 911.6875 L 765.007812 911.6875 Z M 765.007812 910.625 " fill-opacity="1" fill-rule="nonzero"/></g><g clip-path="url(#e4a1ffb02a)"><path fill="#333333" d="M 765.007812 954.910156 L 1650.710938 954.910156 L 1650.710938 955.972656 L 765.007812 955.972656 Z M 765.007812 954.910156 " fill-opacity="1" fill-rule="nonzero"/></g><g clip-path="url(#c4433c0975)"><path fill="#333333" d="M 765.007812 999.195312 L 1650.710938 999.195312 L 1650.710938 1000.257812 L 765.007812 1000.257812 Z M 765.007812 999.195312 " fill-opacity="1" fill-rule="nonzero"/></g><g clip-path="url(#db72ec7fc6)"><path fill="#333333" d="M 765.007812 1043.480469 L 1650.710938 1043.480469 L 1650.710938 1044.542969 L 765.007812 1044.542969 Z M 765.007812 1043.480469 " fill-opacity="1" fill-rule="nonzero"/></g><g clip-path="url(#c4719773eb)"><path fill="#333333" d="M 765.007812 1087.765625 L 1650.710938 1087.765625 L 1650.710938 1088.828125 L 765.007812 1088.828125 Z M 765.007812 1087.765625 " fill-opacity="1" fill-rule="nonzero"/></g><g clip-path="url(#7a26e78bd7)"><path fill="#333333" d="M 765.007812 1132.050781 L 1650.710938 1132.050781 L 1650.710938 1133.113281 L 765.007812 1133.113281 Z M 765.007812 1132.050781 " fill-opacity="1" fill-rule="nonzero"/></g><g clip-path="url(#f781c22682)"><path fill="#333333" d="M 765.007812 1176.335938 L 1650.710938 1176.335938 L 1650.710938 1177.398438 L 765.007812 1177.398438 Z M 765.007812 1176.335938 " fill-opacity="1" fill-rule="nonzero"/></g><g clip-path="url(#3a85d782f6)"><path fill="#333333" d="M 765.007812 1220.621094 L 1650.710938 1220.621094 L 1650.710938 1221.683594 L 765.007812 1221.683594 Z M 765.007812 1220.621094 " fill-opacity="1" fill-rule="nonzero"/></g><g clip-path="url(#5832cb1fdc)"><path fill="#333333" d="M 765.007812 1264.90625 L 1650.710938 1264.90625 L 1650.710938 1265.96875 L 765.007812 1265.96875 Z M 765.007812 1264.90625 " fill-opacity="1" fill-rule="nonzero"/></g><g clip-path="url(#55b53a7a40)"><path fill="#333333" d="M 765.007812 1309.191406 L 1650.710938 1309.191406 L 1650.710938 1310.253906 L 765.007812 1310.253906 Z M 765.007812 1309.191406 " fill-opacity="1" fill-rule="nonzero"/></g><g clip-path="url(#ae989bde23)"><path fill="#333333" d="M 765.007812 1353.476562 L 1650.710938 1353.476562 L 1650.710938 1354.539062 L 765.007812 1354.539062 Z M 765.007812 1353.476562 " fill-opacity="1" fill-rule="nonzero"/></g><g clip-path="url(#8ca68ad321)"><path fill="#333333" d="M 765.007812 1397.761719 L 1650.710938 1397.761719 L 1650.710938 1398.824219 L 765.007812 1398.824219 Z M 765.007812 1397.761719 " fill-opacity="1" fill-rule="nonzero"/></g><g clip-path="url(#b8bac58e64)"><path fill="#333333" d="M 765.007812 1442.046875 L 1650.710938 1442.046875 L 1650.710938 1443.109375 L 765.007812 1443.109375 Z M 765.007812 1442.046875 " fill-opacity="1" fill-rule="nonzero"/></g><g clip-path="url(#c0121b1e52)"><path fill="#333333" d="M 765.007812 1486.332031 L 1650.710938 1486.332031 L 1650.710938 1487.394531 L 765.007812 1487.394531 Z M 765.007812 1486.332031 " fill-opacity="1" fill-rule="nonzero"/></g><g clip-path="url(#e6744e64d9)"><path fill="#333333" d="M 808.585938 734.015625 L 809.648438 734.015625 L 809.648438 1619.71875 L 808.585938 1619.71875 Z M 808.585938 734.015625 " fill-opacity="1" fill-rule="nonzero"/></g><g clip-path="url(#740024a3a8)"><path fill="#333333" d="M 852.871094 734.015625 L 853.933594 734.015625 L 853.933594 1619.71875 L 852.871094 1619.71875 Z M 852.871094 734.015625 " fill-opacity="1" fill-rule="nonzero"/></g><g clip-path="url(#3d2a9f1f35)"><path fill="#333333" d="M 897.15625 734.015625 L 898.21875 734.015625 L 898.21875 1619.71875 L 897.15625 1619.71875 Z M 897.15625 734.015625 " fill-opacity="1" fill-rule="nonzero"/></g><g clip-path="url(#c87f50452b)"><path fill="#333333" d="M 941.441406 734.015625 L 942.503906 734.015625 L 942.503906 1619.71875 L 941.441406 1619.71875 Z M 941.441406 734.015625 " fill-opacity="1" fill-rule="nonzero"/></g><g clip-path="url(#cb44607ff2)"><path fill="#333333" d="M 985.726562 734.015625 L 986.789062 734.015625 L 986.789062 1619.71875 L 985.726562 1619.71875 Z M 985.726562 734.015625 " fill-opacity="1" fill-rule="nonzero"/></g><g clip-path="url(#2bca3c135e)"><path fill="#333333" d="M 1030.011719 734.015625 L 1031.074219 734.015625 L 1031.074219 1619.71875 L 1030.011719 1619.71875 Z M 1030.011719 734.015625 " fill-opacity="1" fill-rule="nonzero"/></g><g clip-path="url(#ed4bc63dd5)"><path fill="#333333" d="M 1074.296875 734.015625 L 1075.359375 734.015625 L 1075.359375 1619.71875 L 1074.296875 1619.71875 Z M 1074.296875 734.015625 " fill-opacity="1" fill-rule="nonzero"/></g><g clip-path="url(#a20ff281b4)"><path fill="#333333" d="M 1118.582031 734.015625 L 1119.644531 734.015625 L 1119.644531 1619.71875 L 1118.582031 1619.71875 Z M 1118.582031 734.015625 " fill-opacity="1" fill-rule="nonzero"/></g><g clip-path="url(#b8653a9c16)"><path fill="#333333" d="M 1162.867188 734.015625 L 1163.929688 734.015625 L 1163.929688 1619.71875 L 1162.867188 1619.71875 Z M 1162.867188 734.015625 " fill-opacity="1" fill-rule="nonzero"/></g><g clip-path="url(#8a9070a706)"><path fill="#333333" d="M 1207.152344 734.015625 L 1208.214844 734.015625 L 1208.214844 1619.71875 L 1207.152344 1619.71875 Z M 1207.152344 734.015625 " fill-opacity="1" fill-rule="nonzero"/></g><g clip-path="url(#243a149e99)"><path fill="#333333" d="M 1251.4375 734.015625 L 1252.5 734.015625 L 1252.5 1619.71875 L 1251.4375 1619.71875 Z M 1251.4375 734.015625 " fill-opacity="1" fill-rule="nonzero"/></g><g clip-path="url(#b790b20060)"><path fill="#333333" d="M 1295.722656 734.015625 L 1296.785156 734.015625 L 1296.785156 1619.71875 L 1295.722656 1619.71875 Z M 1295.722656 734.015625 " fill-opacity="1" fill-rule="nonzero"/></g><g clip-path="url(#f0dfd89de4)"><path fill="#333333" d="M 1340.007812 734.015625 L 1341.070312 734.015625 L 1341.070312 1619.71875 L 1340.007812 1619.71875 Z M 1340.007812 734.015625 " fill-opacity="1" fill-rule="nonzero"/></g><g clip-path="url(#b286fe0ff0)"><path fill="#333333" d="M 1384.292969 734.015625 L 1385.355469 734.015625 L 1385.355469 1619.71875 L 1384.292969 1619.71875 Z M 1384.292969 734.015625 " fill-opacity="1" fill-rule="nonzero"/></g><g clip-path="url(#1cba764b60)"><path fill="#333333" d="M 1428.578125 734.015625 L 1429.640625 734.015625 L 1429.640625 1619.71875 L 1428.578125 1619.71875 Z M 1428.578125 734.015625 " fill-opacity="1" fill-rule="nonzero"/></g><g clip-path="url(#665b42d956)"><path fill="#333333" d="M 1472.863281 734.015625 L 1473.925781 734.015625 L 1473.925781 1619.71875 L 1472.863281 1619.71875 Z M 1472.863281 734.015625 " fill-opacity="1" fill-rule="nonzero"/></g><g clip-path="url(#ca04457b2a)"><path fill="#d3ff5c" d="M 1156.308594 325.453125 L 1567.824219 325.453125 L 1567.824219 736.96875 L 1156.308594 736.96875 Z M 1156.308594 325.453125 " fill-opacity="1" fill-rule="nonzero"/></g><g clip-path="url(#5d5d4379a1)"><path fill="#333333" d="M 1156.308594 325.203125 L 1567.824219 325.203125 L 1567.824219 325.699219 L 1156.308594 325.699219 Z M 1156.308594 325.203125 " fill-opacity="1" fill-rule="nonzero"/></g><g clip-path="url(#5f86aa993b)"><path fill="#333333" d="M 1156.308594 345.78125 L 1567.824219 345.78125 L 1567.824219 346.273438 L 1156.308594 346.273438 Z M 1156.308594 345.78125 " fill-opacity="1" fill-rule="nonzero"/></g><g clip-path="url(#a0cd0dba0c)"><path fill="#333333" d="M 1156.308594 366.355469 L 1567.824219 366.355469 L 1567.824219 366.851562 L 1156.308594 366.851562 Z M 1156.308594 366.355469 " fill-opacity="1" fill-rule="nonzero"/></g><g clip-path="url(#26b483e774)"><path fill="#333333" d="M 1156.308594 386.933594 L 1567.824219 386.933594 L 1567.824219 387.425781 L 1156.308594 387.425781 Z M 1156.308594 386.933594 " fill-opacity="1" fill-rule="nonzero"/></g><g clip-path="url(#b38c2ac0aa)"><path fill="#333333" d="M 1156.308594 407.507812 L 1567.824219 407.507812 L 1567.824219 408 L 1156.308594 408 Z M 1156.308594 407.507812 " fill-opacity="1" fill-rule="nonzero"/></g><g clip-path="url(#8fd6650bc2)"><path fill="#333333" d="M 1156.308594 428.082031 L 1567.824219 428.082031 L 1567.824219 428.578125 L 1156.308594 428.578125 Z M 1156.308594 428.082031 " fill-opacity="1" fill-rule="nonzero"/></g><g clip-path="url(#7987992a44)"><path fill="#333333" d="M 1156.308594 448.660156 L 1567.824219 448.660156 L 1567.824219 449.152344 L 1156.308594 449.152344 Z M 1156.308594 448.660156 " fill-opacity="1" fill-rule="nonzero"/></g><g clip-path="url(#92cfb99d14)"><path fill="#333333" d="M 1156.308594 469.234375 L 1567.824219 469.234375 L 1567.824219 469.730469 L 1156.308594 469.730469 Z M 1156.308594 469.234375 " fill-opacity="1" fill-rule="nonzero"/></g><g clip-path="url(#30e86d18a6)"><path fill="#333333" d="M 1156.308594 489.8125 L 1567.824219 489.8125 L 1567.824219 490.304688 L 1156.308594 490.304688 Z M 1156.308594 489.8125 " fill-opacity="1" fill-rule="nonzero"/></g><g clip-path="url(#f87a5bea0d)"><path fill="#333333" d="M 1156.308594 510.386719 L 1567.824219 510.386719 L 1567.824219 510.878906 L 1156.308594 510.878906 Z M 1156.308594 510.386719 " fill-opacity="1" fill-rule="nonzero"/></g><g clip-path="url(#f1b7d9c382)"><path fill="#333333" d="M 1156.308594 530.960938 L 1567.824219 530.960938 L 1567.824219 531.457031 L 1156.308594 531.457031 Z M 1156.308594 530.960938 " fill-opacity="1" fill-rule="nonzero"/></g><g clip-path="url(#4dcb09cf66)"><path fill="#333333" d="M 1156.308594 551.539062 L 1567.824219 551.539062 L 1567.824219 552.03125 L 1156.308594 552.03125 Z M 1156.308594 551.539062 " fill-opacity="1" fill-rule="nonzero"/></g><g clip-path="url(#66e65d2212)"><path fill="#333333" d="M 1156.308594 572.113281 L 1567.824219 572.113281 L 1567.824219 572.609375 L 1156.308594 572.609375 Z M 1156.308594 572.113281 " fill-opacity="1" fill-rule="nonzero"/></g><g clip-path="url(#d55c0f8cde)"><path fill="#333333" d="M 1156.308594 592.6875 L 1567.824219 592.6875 L 1567.824219 593.183594 L 1156.308594 593.183594 Z M 1156.308594 592.6875 " fill-opacity="1" fill-rule="nonzero"/></g><g clip-path="url(#793c99408c)"><path fill="#333333" d="M 1156.308594 613.265625 L 1567.824219 613.265625 L 1567.824219 613.757812 L 1156.308594 613.757812 Z M 1156.308594 613.265625 " fill-opacity="1" fill-rule="nonzero"/></g><g clip-path="url(#5e99cb6d07)"><path fill="#333333" d="M 1156.308594 633.839844 L 1567.824219 633.839844 L 1567.824219 634.335938 L 1156.308594 634.335938 Z M 1156.308594 633.839844 " fill-opacity="1" fill-rule="nonzero"/></g><g clip-path="url(#92706506de)"><path fill="#333333" d="M 1156.308594 654.417969 L 1567.824219 654.417969 L 1567.824219 654.910156 L 1156.308594 654.910156 Z M 1156.308594 654.417969 " fill-opacity="1" fill-rule="nonzero"/></g><g clip-path="url(#3d9dcd94d9)"><path fill="#333333" d="M 1156.308594 674.992188 L 1567.824219 674.992188 L 1567.824219 675.488281 L 1156.308594 675.488281 Z M 1156.308594 674.992188 " fill-opacity="1" fill-rule="nonzero"/></g><g clip-path="url(#6996b366da)"><path fill="#333333" d="M 1156.308594 695.566406 L 1567.824219 695.566406 L 1567.824219 696.0625 L 1156.308594 696.0625 Z M 1156.308594 695.566406 " fill-opacity="1" fill-rule="nonzero"/></g><g clip-path="url(#6455226492)"><path fill="#333333" d="M 1156.308594 716.144531 L 1567.824219 716.144531 L 1567.824219 716.636719 L 1156.308594 716.636719 Z M 1156.308594 716.144531 " fill-opacity="1" fill-rule="nonzero"/></g><g clip-path="url(#5b36f75597)"><path fill="#333333" d="M 1156.308594 736.71875 L 1567.824219 736.71875 L 1567.824219 737.214844 L 1156.308594 737.214844 Z M 1156.308594 736.71875 " fill-opacity="1" fill-rule="nonzero"/></g><g clip-path="url(#95666a816a)"><path fill="#333333" d="M 1155.980469 325.453125 L 1156.472656 325.453125 L 1156.472656 736.96875 L 1155.980469 736.96875 Z M 1155.980469 325.453125 " fill-opacity="1" fill-rule="nonzero"/></g><g clip-path="url(#160cd09829)"><path fill="#333333" d="M 1176.554688 325.453125 L 1177.046875 325.453125 L 1177.046875 736.96875 L 1176.554688 736.96875 Z M 1176.554688 325.453125 " fill-opacity="1" fill-rule="nonzero"/></g><g clip-path="url(#846bffa616)"><path fill="#333333" d="M 1197.128906 325.453125 L 1197.625 325.453125 L 1197.625 736.96875 L 1197.128906 736.96875 Z M 1197.128906 325.453125 " fill-opacity="1" fill-rule="nonzero"/></g><g clip-path="url(#be8fcecc78)"><path fill="#333333" d="M 1217.707031 325.453125 L 1218.199219 325.453125 L 1218.199219 736.96875 L 1217.707031 736.96875 Z M 1217.707031 325.453125 " fill-opacity="1" fill-rule="nonzero"/></g><g clip-path="url(#5988665671)"><path fill="#333333" d="M 1238.28125 325.453125 L 1238.777344 325.453125 L 1238.777344 736.96875 L 1238.28125 736.96875 Z M 1238.28125 325.453125 " fill-opacity="1" fill-rule="nonzero"/></g><g clip-path="url(#c72746a32e)"><path fill="#333333" d="M 1258.859375 325.453125 L 1259.351562 325.453125 L 1259.351562 736.96875 L 1258.859375 736.96875 Z M 1258.859375 325.453125 " fill-opacity="1" fill-rule="nonzero"/></g><g clip-path="url(#7e06a44fd5)"><path fill="#333333" d="M 1279.433594 325.453125 L 1279.925781 325.453125 L 1279.925781 736.96875 L 1279.433594 736.96875 Z M 1279.433594 325.453125 " fill-opacity="1" fill-rule="nonzero"/></g><g clip-path="url(#387d5866c1)"><path fill="#333333" d="M 1300.007812 325.453125 L 1300.503906 325.453125 L 1300.503906 736.96875 L 1300.007812 736.96875 Z M 1300.007812 325.453125 " fill-opacity="1" fill-rule="nonzero"/></g><g clip-path="url(#67b6179f74)"><path fill="#333333" d="M 1320.585938 325.453125 L 1321.078125 325.453125 L 1321.078125 736.96875 L 1320.585938 736.96875 Z M 1320.585938 325.453125 " fill-opacity="1" fill-rule="nonzero"/></g><g clip-path="url(#542ee4c8b7)"><path fill="#333333" d="M 1341.160156 325.453125 L 1341.65625 325.453125 L 1341.65625 736.96875 L 1341.160156 736.96875 Z M 1341.160156 325.453125 " fill-opacity="1" fill-rule="nonzero"/></g><g clip-path="url(#35ab39afd0)"><path fill="#333333" d="M 1361.738281 325.453125 L 1362.230469 325.453125 L 1362.230469 736.96875 L 1361.738281 736.96875 Z M 1361.738281 325.453125 " fill-opacity="1" fill-rule="nonzero"/></g><g clip-path="url(#afe9b9f7aa)"><path fill="#333333" d="M 1382.3125 325.453125 L 1382.804688 325.453125 L 1382.804688 736.96875 L 1382.3125 736.96875 Z M 1382.3125 325.453125 " fill-opacity="1" fill-rule="nonzero"/></g><g clip-path="url(#958341a470)"><path fill="#333333" d="M 1402.886719 325.453125 L 1403.382812 325.453125 L 1403.382812 736.96875 L 1402.886719 736.96875 Z M 1402.886719 325.453125 " fill-opacity="1" fill-rule="nonzero"/></g><g clip-path="url(#5800ac5e67)"><path fill="#333333" d="M 1423.464844 325.453125 L 1423.957031 325.453125 L 1423.957031 736.96875 L 1423.464844 736.96875 Z M 1423.464844 325.453125 " fill-opacity="1" fill-rule="nonzero"/></g><g clip-path="url(#aa9f2cae25)"><path fill="#333333" d="M 1444.039062 325.453125 L 1444.535156 325.453125 L 1444.535156 736.96875 L 1444.039062 736.96875 Z M 1444.039062 325.453125 " fill-opacity="1" fill-rule="nonzero"/></g><g clip-path="url(#e7239a6d6e)"><path fill="#333333" d="M 1464.617188 325.453125 L 1465.109375 325.453125 L 1465.109375 736.96875 L 1464.617188 736.96875 Z M 1464.617188 325.453125 " fill-opacity="1" fill-rule="nonzero"/></g><g clip-path="url(#332e4bba1f)"><path fill="#333333" d="M 1485.191406 325.453125 L 1485.683594 325.453125 L 1485.683594 736.96875 L 1485.191406 736.96875 Z M 1485.191406 325.453125 " fill-opacity="1" fill-rule="nonzero"/></g><g clip-path="url(#5719f84312)"><path fill="#d3ff5c" d="M 375.84375 1120.015625 L 765.351562 1120.015625 L 765.351562 1509.523438 L 375.84375 1509.523438 Z M 375.84375 1120.015625 " fill-opacity="1" fill-rule="nonzero"/></g><g clip-path="url(#f4c923ec67)"><path fill="#333333" d="M 375.84375 1139.257812 L 765.351562 1139.257812 L 765.351562 1139.722656 L 375.84375 1139.722656 Z M 375.84375 1139.257812 " fill-opacity="1" fill-rule="nonzero"/></g><g clip-path="url(#935a7baaff)"><path fill="#333333" d="M 375.84375 1158.730469 L 765.351562 1158.730469 L 765.351562 1159.199219 L 375.84375 1159.199219 Z M 375.84375 1158.730469 " fill-opacity="1" fill-rule="nonzero"/></g><g clip-path="url(#c83fb14b0d)"><path fill="#333333" d="M 375.84375 1178.207031 L 765.351562 1178.207031 L 765.351562 1178.675781 L 375.84375 1178.675781 Z M 375.84375 1178.207031 " fill-opacity="1" fill-rule="nonzero"/></g><g clip-path="url(#6eb604b87a)"><path fill="#333333" d="M 375.84375 1197.683594 L 765.351562 1197.683594 L 765.351562 1198.148438 L 375.84375 1198.148438 Z M 375.84375 1197.683594 " fill-opacity="1" fill-rule="nonzero"/></g><g clip-path="url(#5fc0c8f87a)"><path fill="#333333" d="M 375.84375 1217.15625 L 765.351562 1217.15625 L 765.351562 1217.625 L 375.84375 1217.625 Z M 375.84375 1217.15625 " fill-opacity="1" fill-rule="nonzero"/></g><g clip-path="url(#96b19a1cc4)"><path fill="#333333" d="M 375.84375 1236.632812 L 765.351562 1236.632812 L 765.351562 1237.101562 L 375.84375 1237.101562 Z M 375.84375 1236.632812 " fill-opacity="1" fill-rule="nonzero"/></g><g clip-path="url(#79ed04ad0e)"><path fill="#333333" d="M 375.84375 1256.109375 L 765.351562 1256.109375 L 765.351562 1256.574219 L 375.84375 1256.574219 Z M 375.84375 1256.109375 " fill-opacity="1" fill-rule="nonzero"/></g><g clip-path="url(#8dfd50c20c)"><path fill="#333333" d="M 375.84375 1275.582031 L 765.351562 1275.582031 L 765.351562 1276.050781 L 375.84375 1276.050781 Z M 375.84375 1275.582031 " fill-opacity="1" fill-rule="nonzero"/></g><g clip-path="url(#38ec0caf7b)"><path fill="#333333" d="M 375.84375 1295.058594 L 765.351562 1295.058594 L 765.351562 1295.527344 L 375.84375 1295.527344 Z M 375.84375 1295.058594 " fill-opacity="1" fill-rule="nonzero"/></g><g clip-path="url(#0e24f3586e)"><path fill="#333333" d="M 375.84375 1314.535156 L 765.351562 1314.535156 L 765.351562 1315.003906 L 375.84375 1315.003906 Z M 375.84375 1314.535156 " fill-opacity="1" fill-rule="nonzero"/></g><g clip-path="url(#5b33a210dc)"><path fill="#333333" d="M 375.84375 1334.011719 L 765.351562 1334.011719 L 765.351562 1334.476562 L 375.84375 1334.476562 Z M 375.84375 1334.011719 " fill-opacity="1" fill-rule="nonzero"/></g><g clip-path="url(#c19608c6b9)"><path fill="#333333" d="M 375.84375 1353.484375 L 765.351562 1353.484375 L 765.351562 1353.953125 L 375.84375 1353.953125 Z M 375.84375 1353.484375 " fill-opacity="1" fill-rule="nonzero"/></g><g clip-path="url(#73b62314e0)"><path fill="#333333" d="M 375.84375 1372.960938 L 765.351562 1372.960938 L 765.351562 1373.429688 L 375.84375 1373.429688 Z M 375.84375 1372.960938 " fill-opacity="1" fill-rule="nonzero"/></g><g clip-path="url(#f55a0a6d61)"><path fill="#333333" d="M 375.84375 1392.4375 L 765.351562 1392.4375 L 765.351562 1392.902344 L 375.84375 1392.902344 Z M 375.84375 1392.4375 " fill-opacity="1" fill-rule="nonzero"/></g><g clip-path="url(#8a2324a5ac)"><path fill="#333333" d="M 375.84375 1411.910156 L 765.351562 1411.910156 L 765.351562 1412.378906 L 375.84375 1412.378906 Z M 375.84375 1411.910156 " fill-opacity="1" fill-rule="nonzero"/></g><g clip-path="url(#d2aee9b036)"><path fill="#333333" d="M 375.84375 1431.386719 L 765.351562 1431.386719 L 765.351562 1431.855469 L 375.84375 1431.855469 Z M 375.84375 1431.386719 " fill-opacity="1" fill-rule="nonzero"/></g><g clip-path="url(#83f8821eff)"><path fill="#333333" d="M 375.84375 1450.863281 L 765.351562 1450.863281 L 765.351562 1451.328125 L 375.84375 1451.328125 Z M 375.84375 1450.863281 " fill-opacity="1" fill-rule="nonzero"/></g><g clip-path="url(#71afcd2c58)"><path fill="#333333" d="M 375.84375 1470.335938 L 765.351562 1470.335938 L 765.351562 1470.804688 L 375.84375 1470.804688 Z M 375.84375 1470.335938 " fill-opacity="1" fill-rule="nonzero"/></g><g clip-path="url(#377e08be56)"><path fill="#333333" d="M 375.84375 1489.8125 L 765.351562 1489.8125 L 765.351562 1490.28125 L 375.84375 1490.28125 Z M 375.84375 1489.8125 " fill-opacity="1" fill-rule="nonzero"/></g><g clip-path="url(#494c160689)"><path fill="#333333" d="M 395.007812 1120.015625 L 395.472656 1120.015625 L 395.472656 1509.523438 L 395.007812 1509.523438 Z M 395.007812 1120.015625 " fill-opacity="1" fill-rule="nonzero"/></g><g clip-path="url(#936b93bde8)"><path fill="#333333" d="M 414.484375 1120.015625 L 414.949219 1120.015625 L 414.949219 1509.523438 L 414.484375 1509.523438 Z M 414.484375 1120.015625 " fill-opacity="1" fill-rule="nonzero"/></g><g clip-path="url(#f4d5a29127)"><path fill="#333333" d="M 433.957031 1120.015625 L 434.425781 1120.015625 L 434.425781 1509.523438 L 433.957031 1509.523438 Z M 433.957031 1120.015625 " fill-opacity="1" fill-rule="nonzero"/></g><g clip-path="url(#4d8b431783)"><path fill="#333333" d="M 453.433594 1120.015625 L 453.902344 1120.015625 L 453.902344 1509.523438 L 453.433594 1509.523438 Z M 453.433594 1120.015625 " fill-opacity="1" fill-rule="nonzero"/></g><g clip-path="url(#648b56df92)"><path fill="#333333" d="M 472.910156 1120.015625 L 473.375 1120.015625 L 473.375 1509.523438 L 472.910156 1509.523438 Z M 472.910156 1120.015625 " fill-opacity="1" fill-rule="nonzero"/></g><g clip-path="url(#5f6115a617)"><path fill="#333333" d="M 492.382812 1120.015625 L 492.851562 1120.015625 L 492.851562 1509.523438 L 492.382812 1509.523438 Z M 492.382812 1120.015625 " fill-opacity="1" fill-rule="nonzero"/></g><g clip-path="url(#ca60d1299c)"><path fill="#333333" d="M 511.859375 1120.015625 L 512.328125 1120.015625 L 512.328125 1509.523438 L 511.859375 1509.523438 Z M 511.859375 1120.015625 " fill-opacity="1" fill-rule="nonzero"/></g><g clip-path="url(#e1bc2fe8b6)"><path fill="#333333" d="M 531.335938 1120.015625 L 531.800781 1120.015625 L 531.800781 1509.523438 L 531.335938 1509.523438 Z M 531.335938 1120.015625 " fill-opacity="1" fill-rule="nonzero"/></g><g clip-path="url(#49060875be)"><path fill="#333333" d="M 550.808594 1120.015625 L 551.277344 1120.015625 L 551.277344 1509.523438 L 550.808594 1509.523438 Z M 550.808594 1120.015625 " fill-opacity="1" fill-rule="nonzero"/></g><g clip-path="url(#227606a471)"><path fill="#333333" d="M 570.285156 1120.015625 L 570.753906 1120.015625 L 570.753906 1509.523438 L 570.285156 1509.523438 Z M 570.285156 1120.015625 " fill-opacity="1" fill-rule="nonzero"/></g><g clip-path="url(#62891bda21)"><path fill="#333333" d="M 589.761719 1120.015625 L 590.226562 1120.015625 L 590.226562 1509.523438 L 589.761719 1509.523438 Z M 589.761719 1120.015625 " fill-opacity="1" fill-rule="nonzero"/></g><g clip-path="url(#72368fea34)"><path fill="#333333" d="M 609.238281 1120.015625 L 609.703125 1120.015625 L 609.703125 1509.523438 L 609.238281 1509.523438 Z M 609.238281 1120.015625 " fill-opacity="1" fill-rule="nonzero"/></g><g clip-path="url(#1e1da4635c)"><path fill="#333333" d="M 628.710938 1120.015625 L 629.179688 1120.015625 L 629.179688 1509.523438 L 628.710938 1509.523438 Z M 628.710938 1120.015625 " fill-opacity="1" fill-rule="nonzero"/></g><g clip-path="url(#5d3ce99389)"><path fill="#333333" d="M 648.1875 1120.015625 L 648.65625 1120.015625 L 648.65625 1509.523438 L 648.1875 1509.523438 Z M 648.1875 1120.015625 " fill-opacity="1" fill-rule="nonzero"/></g><g clip-path="url(#c8fa27c069)"><path fill="#333333" d="M 667.664062 1120.015625 L 668.128906 1120.015625 L 668.128906 1509.523438 L 667.664062 1509.523438 Z M 667.664062 1120.015625 " fill-opacity="1" fill-rule="nonzero"/></g><g clip-path="url(#d0f1a2ceda)"><path fill="#333333" d="M 687.136719 1120.015625 L 687.605469 1120.015625 L 687.605469 1509.523438 L 687.136719 1509.523438 Z M 687.136719 1120.015625 " fill-opacity="1" fill-rule="nonzero"/></g><g clip-path="url(#ad32c6264b)"><path fill="#333333" d="M 706.613281 1120.015625 L 707.082031 1120.015625 L 707.082031 1509.523438 L 706.613281 1509.523438 Z M 706.613281 1120.015625 " fill-opacity="1" fill-rule="nonzero"/></g><g clip-path="url(#a03cd8b7b4)"><path fill="#333333" d="M 726.089844 1120.015625 L 726.554688 1120.015625 L 726.554688 1509.523438 L 726.089844 1509.523438 Z M 726.089844 1120.015625 " fill-opacity="1" fill-rule="nonzero"/></g><g clip-path="url(#5797fdd7db)"><path fill="#333333" d="M 745.5625 1120.015625 L 746.03125 1120.015625 L 746.03125 1509.523438 L 745.5625 1509.523438 Z M 745.5625 1120.015625 " fill-opacity="1" fill-rule="nonzero"/></g><g clip-path="url(#b36daeaae2)"><path fill="#333333" d="M 765.039062 1120.015625 L 765.507812 1120.015625 L 765.507812 1509.523438 L 765.039062 1509.523438 Z M 765.039062 1120.015625 " fill-opacity="1" fill-rule="nonzero"/></g><g clip-path="url(#0c7633f912)"><path fill="#333333" d="M 1483.085938 405.75 L 1483.085938 1492.671875 C 1483.085938 1494.4375 1481.648438 1495.878906 1479.878906 1495.878906 L 376.617188 1495.878906 C 374.851562 1495.878906 373.410156 1494.441406 373.410156 1492.671875 C 373.410156 1490.902344 374.847656 1489.46875 376.617188 1489.46875 L 1476.679688 1489.46875 L 1476.679688 405.75 C 1476.679688 403.984375 1478.113281 402.546875 1479.882812 402.546875 C 1481.652344 402.546875 1483.085938 403.984375 1483.085938 405.75 Z M 1483.085938 405.75 " fill-opacity="1" fill-rule="nonzero"/></g><g clip-path="url(#44b1732ceb)"><path fill="#ff6338" d="M 527.085938 1465.8125 C 527.085938 1466.363281 526.945312 1466.917969 526.652344 1467.425781 C 515.324219 1486.832031 523.523438 1518.972656 523.613281 1519.292969 C 524.050781 1520.980469 523.039062 1522.753906 521.332031 1523.207031 C 519.625 1523.660156 517.875 1522.648438 517.417969 1520.945312 C 517.332031 1520.597656 508.320312 1486.132812 521.113281 1464.195312 C 522.007812 1462.664062 523.96875 1462.148438 525.5 1463.042969 C 526.523438 1463.640625 527.085938 1464.707031 527.085938 1465.8125 Z M 527.085938 1465.8125 " fill-opacity="1" fill-rule="nonzero"/></g><g clip-path="url(#31c8853e21)"><path fill="#ff6338" d="M 642.699219 1465.8125 C 642.699219 1466.363281 642.5625 1466.917969 642.269531 1467.425781 C 631.050781 1486.640625 639.148438 1518.992188 639.230469 1519.316406 C 639.65625 1521.039062 638.632812 1522.777344 636.917969 1523.214844 C 635.203125 1523.65625 633.457031 1522.621094 633.015625 1520.90625 C 632.652344 1519.480469 624.210938 1485.652344 636.722656 1464.195312 C 637.617188 1462.664062 639.578125 1462.148438 641.109375 1463.042969 C 642.132812 1463.640625 642.699219 1464.707031 642.699219 1465.8125 Z M 642.699219 1465.8125 " fill-opacity="1" fill-rule="nonzero"/></g><g clip-path="url(#719cf52ca4)"><path fill="#ff6338" d="M 758.316406 1465.8125 C 758.316406 1466.363281 758.175781 1466.917969 757.882812 1467.425781 C 746.667969 1486.621094 754.761719 1518.992188 754.84375 1519.316406 C 755.277344 1521.039062 754.25 1522.777344 752.535156 1523.214844 C 750.820312 1523.65625 749.070312 1522.621094 748.632812 1520.90625 C 748.265625 1519.480469 739.820312 1485.652344 752.339844 1464.195312 C 753.234375 1462.664062 755.199219 1462.148438 756.726562 1463.042969 C 757.75 1463.640625 758.316406 1464.707031 758.316406 1465.8125 Z M 758.316406 1465.8125 " fill-opacity="1" fill-rule="nonzero"/></g><g clip-path="url(#4575a0e235)"><path fill="#ff6338" d="M 875.925781 1465.8125 C 875.925781 1466.363281 875.785156 1466.917969 875.492188 1467.425781 C 864.277344 1486.640625 872.375 1518.992188 872.457031 1519.316406 C 872.894531 1521.039062 871.859375 1522.777344 870.148438 1523.214844 C 868.433594 1523.65625 866.683594 1522.621094 866.246094 1520.90625 C 865.878906 1519.480469 857.4375 1485.652344 869.949219 1464.195312 C 870.84375 1462.664062 872.808594 1462.148438 874.335938 1463.042969 C 875.355469 1463.640625 875.925781 1464.707031 875.925781 1465.8125 Z M 875.925781 1465.8125 " fill-opacity="1" fill-rule="nonzero"/></g><g clip-path="url(#4026cfd3ed)"><path fill="#ff6338" d="M 995.402344 1465.8125 C 995.402344 1466.363281 995.265625 1466.917969 994.972656 1467.425781 C 983.757812 1486.621094 991.855469 1518.992188 991.933594 1519.316406 C 992.367188 1521.039062 991.335938 1522.777344 989.621094 1523.214844 C 987.90625 1523.65625 986.160156 1522.621094 985.71875 1520.90625 C 985.355469 1519.480469 976.910156 1485.652344 989.429688 1464.195312 C 990.324219 1462.664062 992.285156 1462.148438 993.816406 1463.042969 C 994.835938 1463.640625 995.402344 1464.707031 995.402344 1465.8125 Z M 995.402344 1465.8125 " fill-opacity="1" fill-rule="nonzero"/></g><g clip-path="url(#b39b8ad76b)"><path fill="#ff6338" d="M 1113.320312 1465.8125 C 1113.320312 1466.363281 1113.179688 1466.917969 1112.890625 1467.425781 C 1101.675781 1486.640625 1109.769531 1518.992188 1109.855469 1519.316406 C 1110.285156 1521.039062 1109.257812 1522.777344 1107.542969 1523.214844 C 1105.828125 1523.65625 1104.082031 1522.621094 1103.640625 1520.90625 C 1103.277344 1519.480469 1094.835938 1485.652344 1107.347656 1464.195312 C 1108.242188 1462.664062 1110.203125 1462.148438 1111.734375 1463.042969 C 1112.757812 1463.640625 1113.320312 1464.707031 1113.320312 1465.8125 Z M 1113.320312 1465.8125 " fill-opacity="1" fill-rule="nonzero"/></g><g clip-path="url(#a4e944cc47)"><path fill="#ff6338" d="M 1228.222656 1465.8125 C 1228.222656 1466.363281 1228.082031 1466.917969 1227.789062 1467.425781 C 1216.460938 1486.832031 1224.664062 1518.972656 1224.75 1519.292969 C 1225.183594 1520.980469 1224.175781 1522.753906 1222.46875 1523.207031 C 1220.761719 1523.660156 1219.011719 1522.648438 1218.554688 1520.945312 C 1218.460938 1520.597656 1209.457031 1486.132812 1222.25 1464.195312 C 1223.140625 1462.664062 1225.105469 1462.148438 1226.636719 1463.042969 C 1227.65625 1463.640625 1228.222656 1464.707031 1228.222656 1465.8125 Z M 1228.222656 1465.8125 " fill-opacity="1" fill-rule="nonzero"/></g><g clip-path="url(#7813387e11)"><path fill="#ff6338" d="M 1346.148438 1465.8125 C 1346.148438 1466.363281 1346.007812 1466.917969 1345.714844 1467.425781 C 1334.496094 1486.621094 1342.597656 1518.992188 1342.679688 1519.316406 C 1343.117188 1521.039062 1342.082031 1522.777344 1340.367188 1523.214844 C 1338.652344 1523.65625 1336.90625 1522.621094 1336.464844 1520.90625 C 1336.101562 1519.480469 1327.648438 1485.652344 1340.175781 1464.195312 C 1341.066406 1462.664062 1343.03125 1462.148438 1344.5625 1463.042969 C 1345.578125 1463.640625 1346.148438 1464.707031 1346.148438 1465.8125 Z M 1346.148438 1465.8125 " fill-opacity="1" fill-rule="nonzero"/></g><g clip-path="url(#7475a85244)"><path fill="#ff6338" d="M 1510.242188 1356.410156 C 1510.242188 1356.957031 1510.105469 1357.511719 1509.8125 1358.019531 C 1508.917969 1359.550781 1506.953125 1360.066406 1505.425781 1359.171875 C 1486.199219 1347.960938 1453.847656 1356.050781 1453.523438 1356.136719 C 1451.808594 1356.574219 1450.066406 1355.539062 1449.625 1353.824219 C 1449.167969 1352.132812 1450.214844 1350.367188 1451.933594 1349.921875 C 1453.359375 1349.558594 1487.1875 1341.113281 1508.652344 1353.632812 C 1509.675781 1354.234375 1510.242188 1355.308594 1510.242188 1356.410156 Z M 1510.242188 1356.410156 " fill-opacity="1" fill-rule="nonzero"/></g><g clip-path="url(#a08d123397)"><path fill="#ff6338" d="M 1510.242188 1238.492188 C 1510.242188 1239.042969 1510.105469 1239.59375 1509.8125 1240.105469 C 1508.917969 1241.632812 1506.953125 1242.152344 1505.425781 1241.257812 C 1486.207031 1230.046875 1453.847656 1238.140625 1453.523438 1238.226562 C 1451.808594 1238.660156 1450.066406 1237.628906 1449.625 1235.914062 C 1449.167969 1234.226562 1450.214844 1232.457031 1451.933594 1232.011719 C 1453.363281 1231.644531 1487.191406 1223.203125 1508.652344 1235.714844 C 1509.675781 1236.316406 1510.242188 1237.386719 1510.242188 1238.492188 Z M 1510.242188 1238.492188 " fill-opacity="1" fill-rule="nonzero"/></g><g clip-path="url(#a46288d2a9)"><path fill="#ff6338" d="M 1510.242188 1123.601562 C 1510.242188 1124.152344 1510.105469 1124.703125 1509.8125 1125.214844 C 1508.917969 1126.742188 1506.953125 1127.261719 1505.425781 1126.367188 C 1486.207031 1115.152344 1453.847656 1123.246094 1453.523438 1123.328125 C 1451.808594 1123.765625 1450.066406 1122.734375 1449.625 1121.019531 C 1449.167969 1119.328125 1450.214844 1117.5625 1451.933594 1117.117188 C 1453.363281 1116.75 1487.191406 1108.308594 1508.652344 1120.824219 C 1509.675781 1121.425781 1510.242188 1122.5 1510.242188 1123.601562 Z M 1510.242188 1123.601562 " fill-opacity="1" fill-rule="nonzero"/></g><g clip-path="url(#54680c09d8)"><path fill="#ff6338" d="M 1510.242188 1005.683594 C 1510.242188 1006.230469 1510.105469 1006.785156 1509.8125 1007.292969 C 1508.917969 1008.824219 1506.953125 1009.339844 1505.425781 1008.449219 C 1486.015625 997.128906 1453.867188 1005.328125 1453.546875 1005.40625 C 1451.839844 1005.851562 1450.085938 1004.828125 1449.632812 1003.128906 C 1449.175781 1001.394531 1450.199219 999.664062 1451.898438 999.214844 C 1452.246094 999.121094 1486.714844 990.113281 1508.652344 1002.90625 C 1509.675781 1003.507812 1510.242188 1004.582031 1510.242188 1005.683594 Z M 1510.242188 1005.683594 " fill-opacity="1" fill-rule="nonzero"/></g><g clip-path="url(#31692dfe1d)"><path fill="#ff6338" d="M 1510.242188 884.746094 C 1510.242188 885.296875 1510.105469 885.847656 1509.8125 886.359375 C 1508.917969 887.886719 1506.953125 888.40625 1505.425781 887.511719 C 1486.207031 876.296875 1453.847656 884.390625 1453.523438 884.476562 C 1451.808594 884.910156 1450.066406 883.878906 1449.625 882.164062 C 1449.167969 880.46875 1450.214844 878.707031 1451.933594 878.261719 C 1453.363281 877.898438 1487.191406 869.453125 1508.652344 881.972656 C 1509.675781 882.570312 1510.242188 883.640625 1510.242188 884.746094 Z M 1510.242188 884.746094 " fill-opacity="1" fill-rule="nonzero"/></g><g clip-path="url(#3411afc67d)"><path fill="#ff6338" d="M 1510.242188 766.828125 C 1510.242188 767.375 1510.105469 767.929688 1509.8125 768.4375 C 1508.917969 769.96875 1506.953125 770.484375 1505.425781 769.59375 C 1486.207031 758.382812 1453.847656 766.476562 1453.523438 766.558594 C 1451.808594 766.996094 1450.066406 765.960938 1449.625 764.246094 C 1449.167969 762.558594 1450.214844 760.789062 1451.933594 760.347656 C 1453.363281 759.980469 1487.191406 751.535156 1508.652344 764.050781 C 1509.675781 764.652344 1510.242188 765.726562 1510.242188 766.828125 Z M 1510.242188 766.828125 " fill-opacity="1" fill-rule="nonzero"/></g><g clip-path="url(#fe2dbf329a)"><path fill="#ff6338" d="M 1510.242188 651.941406 C 1510.242188 652.488281 1510.105469 653.042969 1509.8125 653.550781 C 1508.917969 655.082031 1506.953125 655.597656 1505.425781 654.707031 C 1486.207031 643.492188 1453.847656 651.585938 1453.523438 651.667969 C 1451.808594 652.105469 1450.066406 651.070312 1449.625 649.355469 C 1449.167969 647.667969 1450.214844 645.898438 1451.933594 645.457031 C 1453.363281 645.089844 1487.191406 636.644531 1508.652344 649.164062 C 1509.675781 649.765625 1510.242188 650.835938 1510.242188 651.941406 Z M 1510.242188 651.941406 " fill-opacity="1" fill-rule="nonzero"/></g><g clip-path="url(#dde4a9a409)"><path fill="#ff6338" d="M 1510.242188 534.023438 C 1510.242188 534.570312 1510.105469 535.125 1509.8125 535.632812 C 1508.917969 537.164062 1506.953125 537.679688 1505.425781 536.785156 C 1486.015625 525.46875 1453.867188 533.664062 1453.546875 533.746094 C 1451.839844 534.191406 1450.085938 533.167969 1449.632812 531.464844 C 1449.175781 529.746094 1450.199219 528.003906 1451.898438 527.550781 C 1452.246094 527.460938 1486.714844 518.453125 1508.652344 531.246094 C 1509.675781 531.847656 1510.242188 532.921875 1510.242188 534.023438 Z M 1510.242188 534.023438 " fill-opacity="1" fill-rule="nonzero"/></g><g clip-path="url(#1570abea09)"><path fill="#333333" d="M 396.789062 1516.761719 C 396.789062 1517.667969 396.410156 1518.5625 395.667969 1519.199219 C 394.320312 1520.347656 392.296875 1520.1875 391.148438 1518.839844 L 370.5625 1494.753906 C 369.5625 1493.582031 369.535156 1491.859375 370.507812 1490.660156 L 389.8125 1466.796875 C 390.929688 1465.417969 392.945312 1465.210938 394.320312 1466.320312 C 395.699219 1467.433594 395.910156 1469.457031 394.796875 1470.828125 L 377.164062 1492.617188 L 396.019531 1514.679688 C 396.535156 1515.285156 396.789062 1516.019531 396.789062 1516.761719 Z M 396.789062 1516.761719 " fill-opacity="1" fill-rule="nonzero"/></g><g clip-path="url(#f6693f6ff8)"><path fill="#333333" d="M 1507.066406 420.816406 C 1507.066406 421.527344 1506.835938 422.242188 1506.355469 422.832031 C 1505.238281 424.210938 1503.21875 424.417969 1501.847656 423.308594 L 1480.050781 405.675781 L 1457.984375 424.527344 C 1456.636719 425.675781 1454.613281 425.515625 1453.464844 424.171875 C 1452.320312 422.828125 1452.46875 420.800781 1453.820312 419.652344 L 1477.914062 399.066406 C 1479.089844 398.066406 1480.8125 398.042969 1482.011719 399.011719 L 1505.875 418.320312 C 1506.65625 418.960938 1507.066406 419.886719 1507.066406 420.816406 Z M 1507.066406 420.816406 " fill-opacity="1" fill-rule="nonzero"/></g><g transform="matrix(1, 0, 0, 1, 772, 670)"><g clip-path="url(#0c9e448d5f)"><g fill="#393636" fill-opacity="1"><g transform="translate(0.512744, 323.163595)"><g><path d="M 215.625 -117.8125 L 215.625 0 L 175 0 L 175 -16.25 C 156.875 -3.332031 136.5625 3.125 114.0625 3.125 C 85.101562 3.125 60.414062 -7.082031 40 -27.5 C 19.582031 -47.914062 9.375 -72.601562 9.375 -101.5625 C 9.375 -130.519531 19.582031 -155.207031 40 -175.625 C 60.414062 -196.039062 85.101562 -206.25 114.0625 -206.25 C 139.894531 -206.25 162.601562 -197.914062 182.1875 -181.25 L 150.9375 -150.3125 C 139.894531 -158.4375 127.601562 -162.5 114.0625 -162.5 C 96.976562 -162.5 82.707031 -156.5625 71.25 -144.6875 C 59.164062 -132.601562 53.125 -118.226562 53.125 -101.5625 C 53.125 -84.894531 59.164062 -70.519531 71.25 -58.4375 C 83.125 -46.5625 97.394531 -40.625 114.0625 -40.625 C 130.519531 -40.625 144.894531 -46.5625 157.1875 -58.4375 C 157.601562 -58.851562 158.019531 -59.269531 158.4375 -59.6875 L 160 -61.25 C 161.457031 -62.914062 162.8125 -64.476562 164.0625 -65.9375 C 167.601562 -70.3125 170 -74.0625 171.25 -77.1875 L 124.375 -77.1875 L 124.375 -117.8125 Z M 174.6875 -77.1875 L 175 -76.875 L 175 -77.1875 Z M 174.6875 -77.1875 "/></g></g></g><g fill="#393636" fill-opacity="1"><g transform="translate(225.514489, 323.163595)"><g><path d="M 53.125 -136.875 C 56.664062 -146.875 62.601562 -153.851562 70.9375 -157.8125 C 79.0625 -161.769531 91.25 -163.75 107.5 -163.75 L 107.5 -119.0625 C 91.664062 -119.0625 78.4375 -113.644531 67.8125 -102.8125 C 58.019531 -93.226562 53.125 -82.707031 53.125 -71.25 L 53.125 0 L 9.375 0 L 9.375 -160.9375 L 53.125 -160.9375 Z M 53.125 -136.875 "/></g></g></g><g fill="#393636" fill-opacity="1"><g transform="translate(337.70285, 323.163595)"><g><path d="M 52.8125 -217.8125 L 52.8125 -180.9375 L 9.375 -180.9375 L 9.375 -217.8125 Z M 53.125 -160.625 L 53.125 0 L 9.375 0 L 9.375 -160.625 Z M 53.125 -160.625 "/></g></g><g transform="translate(400.203341, 323.163595)"><g><path d="M 135.3125 0 L 135.3125 -18.4375 C 120.3125 -6.144531 103.332031 0 84.375 0 C 62.289062 0.207031 43.332031 -7.5 27.5 -23.125 C 11.664062 -38.75 3.644531 -57.707031 3.4375 -80 C 3.226562 -102.082031 10.9375 -121.039062 26.5625 -136.875 C 42.1875 -152.707031 61.144531 -160.726562 83.4375 -160.9375 C 102.8125 -160.9375 120 -154.789062 135 -142.5 L 135 -218.125 L 178.75 -218.125 L 179.0625 0 Z M 112.1875 -52.5 C 119.894531 -60.207031 123.75 -69.582031 123.75 -80.625 C 123.332031 -91.875 119.375 -101.25 111.875 -108.75 C 103.957031 -116.25 94.582031 -120 83.75 -120 C 72.707031 -120 63.332031 -116.144531 55.625 -108.4375 C 47.914062 -99.894531 44.164062 -90.519531 44.375 -80.3125 C 44.375 -69.269531 48.226562 -59.894531 55.9375 -52.1875 C 63.644531 -44.476562 73.019531 -40.625 84.0625 -40.625 C 95.3125 -41.039062 104.6875 -45 112.1875 -52.5 Z M 112.1875 -52.5 "/></g></g></g></g></g></svg>